<svg xmlns="http://www.w3.org/2000/svg" xmlns:xlink="http://www.w3.org/1999/xlink" width="500" zoomAndPan="magnify" viewBox="0 0 375 374.999991" height="500" preserveAspectRatio="xMidYMid meet" version="1.0"><defs><g/><clipPath id="f1dfde2f50"><path d="M 101 43 L 250 43 L 250 235 L 101 235 Z M 101 43 " clip-rule="nonzero"/></clipPath><clipPath id="0ff52cb41c"><path d="M 90.453125 59.367188 L 236.578125 37.503906 L 264.320312 222.9375 L 118.199219 244.800781 Z M 90.453125 59.367188 " clip-rule="nonzero"/></clipPath><clipPath id="fede9c4cd7"><path d="M 90.453125 59.367188 L 236.578125 37.503906 L 264.320312 222.9375 L 118.199219 244.800781 Z M 90.453125 59.367188 " clip-rule="nonzero"/></clipPath><clipPath id="38cadc66f9"><path d="M 142 113 L 210 113 L 210 211 L 142 211 Z M 142 113 " clip-rule="nonzero"/></clipPath><clipPath id="d48e5e1029"><path d="M 90.453125 59.367188 L 236.578125 37.503906 L 264.320312 222.9375 L 118.199219 244.800781 Z M 90.453125 59.367188 " clip-rule="nonzero"/></clipPath><clipPath id="d9e7c6ab43"><path d="M 90.453125 59.367188 L 236.578125 37.503906 L 264.320312 222.9375 L 118.199219 244.800781 Z M 90.453125 59.367188 " clip-rule="nonzero"/></clipPath><clipPath id="e2d42ef0a3"><path d="M 105.082031 244.660156 L 264.082031 244.660156 L 264.082031 315.15625 L 105.082031 315.15625 Z M 105.082031 244.660156 " clip-rule="nonzero"/></clipPath><clipPath id="cd92a0494c"><path d="M 140.417969 244.660156 L 228.976562 244.660156 C 248.492188 244.660156 264.316406 260.480469 264.316406 279.996094 C 264.316406 299.511719 248.492188 315.332031 228.976562 315.332031 L 140.417969 315.332031 C 120.902344 315.332031 105.082031 299.511719 105.082031 279.996094 C 105.082031 260.480469 120.902344 244.660156 140.417969 244.660156 Z M 140.417969 244.660156 " clip-rule="nonzero"/></clipPath><clipPath id="28f735c0bd"><path d="M 116.601562 255.882812 L 186.683594 255.882812 L 186.683594 304.109375 L 116.601562 304.109375 Z M 116.601562 255.882812 " clip-rule="nonzero"/></clipPath><clipPath id="87e78e1c18"><path d="M 140.714844 255.882812 L 162.558594 255.882812 C 175.878906 255.882812 186.675781 266.679688 186.675781 279.996094 C 186.675781 293.3125 175.878906 304.109375 162.558594 304.109375 L 140.714844 304.109375 C 127.398438 304.109375 116.601562 293.3125 116.601562 279.996094 C 116.601562 266.679688 127.398438 255.882812 140.714844 255.882812 Z M 140.714844 255.882812 " clip-rule="nonzero"/></clipPath></defs><g clip-path="url(#f1dfde2f50)"><g clip-path="url(#0ff52cb41c)"><g clip-path="url(#fede9c4cd7)"><path fill="#283389" d="M 236.667969 88.253906 C 232.710938 75.625 225.71875 60.269531 217.972656 51.515625 C 214.492188 47.578125 210.714844 44.808594 206.726562 43.835938 C 202.039062 42.6875 197.515625 43.886719 193.421875 48.25 C 189.558594 52.363281 186.082031 59.726562 183.304688 71.355469 L 151.1875 76.160156 C 145.128906 65.851562 139.648438 59.835938 134.75 57.027344 C 129.558594 54.054688 124.886719 54.230469 120.734375 56.703125 C 117.210938 58.796875 114.40625 62.554688 112.230469 67.335938 C 107.355469 78.058594 105.160156 94.964844 105.109375 108.25 C 101.738281 116.457031 100.457031 125.636719 101.859375 135 L 102.613281 140.035156 C 105.722656 160.832031 121.195312 176.878906 140.4375 181.816406 C 140.386719 185.820312 140.621094 189.6875 141.140625 193.394531 C 142.691406 204.53125 146.800781 214.085938 153.15625 221.175781 C 159.679688 228.449219 168.457031 233.066406 179.164062 234.089844 C 182.925781 234.449219 186.949219 234.351562 191.21875 233.757812 L 191.296875 233.746094 C 195.554688 233.066406 199.429688 231.980469 202.921875 230.535156 C 212.863281 226.417969 219.90625 219.441406 224.011719 210.570312 C 228.011719 201.941406 229.148438 191.597656 227.371094 180.492188 C 226.78125 176.800781 225.875 173.03125 224.652344 169.222656 C 230.328125 165.761719 235.234375 161.230469 239.132812 155.960938 C 246.890625 145.476562 250.664062 132.042969 248.59375 118.199219 L 247.839844 113.164062 C 246.417969 103.664062 242.425781 95.164062 236.667969 88.253906 Z M 200.816406 55.183594 C 202.082031 53.835938 203.265625 53.414062 204.34375 53.679688 C 206.132812 54.117188 208.203125 55.78125 210.378906 58.242188 C 214.179688 62.546875 217.824219 68.832031 220.925781 75.570312 C 218.894531 74.511719 216.785156 73.585938 214.617188 72.800781 C 214.617188 72.800781 214.621094 72.800781 214.621094 72.800781 C 209.117188 61.960938 203.242188 57.175781 199.40625 69.832031 C 197.664062 69.765625 195.90625 69.789062 194.132812 69.90625 C 196.1875 62.398438 198.453125 57.695312 200.816406 55.183594 Z M 121.464844 71.542969 C 122.828125 68.550781 124.316406 66.359375 125.898438 65.414062 C 126.859375 64.839844 128.113281 64.898438 129.714844 65.816406 C 132.703125 67.53125 136.25 71.367188 140.417969 77.945312 C 139.027344 78.277344 137.65625 78.664062 136.316406 79.105469 C 129.136719 68.527344 124.964844 74.414062 122.847656 85.917969 C 120.558594 87.546875 118.410156 89.355469 116.433594 91.320312 C 117.425781 83.929688 119.074219 76.796875 121.464844 71.542969 Z M 214.8125 206.316406 C 211.777344 212.871094 206.519531 218.050781 199.066406 221.136719 C 196.246094 222.300781 193.144531 223.175781 189.757812 223.722656 C 186.359375 224.191406 183.136719 224.269531 180.101562 223.976562 C 172.070312 223.207031 165.527344 219.789062 160.707031 214.414062 C 155.714844 208.847656 152.453125 201.125 151.179688 191.972656 C 150.792969 189.222656 150.59375 186.339844 150.582031 183.339844 C 153.835938 183.496094 157.148438 183.335938 160.480469 182.835938 L 179.296875 180.023438 L 180.59375 188.6875 C 178.582031 189.664062 176.863281 191.113281 175.566406 192.867188 C 173.484375 195.679688 172.472656 199.292969 173.03125 203.027344 C 173.589844 206.761719 175.609375 209.921875 178.429688 212 C 181.242188 214.082031 184.855469 215.09375 188.589844 214.535156 C 192.324219 213.976562 195.480469 211.957031 197.5625 209.136719 C 199.644531 206.324219 200.65625 202.710938 200.097656 198.976562 C 199.539062 195.242188 197.515625 192.085938 194.699219 190.003906 C 192.945312 188.707031 190.878906 187.824219 188.667969 187.480469 L 187.371094 178.8125 L 205.78125 176.058594 C 209.117188 175.5625 212.332031 174.742188 215.398438 173.640625 C 216.265625 176.515625 216.914062 179.328125 217.351562 182.066406 C 218.816406 191.191406 217.957031 199.53125 214.8125 206.316406 Z M 185.144531 191.503906 C 187.765625 191.109375 190.300781 191.820312 192.28125 193.285156 C 194.257812 194.75 195.675781 196.964844 196.070312 199.589844 C 196.460938 202.210938 195.753906 204.746094 194.292969 206.726562 C 192.828125 208.707031 190.613281 210.125 187.988281 210.519531 C 185.363281 210.910156 182.828125 210.203125 180.847656 208.738281 C 178.871094 207.277344 177.453125 205.054688 177.0625 202.433594 C 176.667969 199.808594 177.378906 197.273438 178.839844 195.292969 C 180.300781 193.316406 182.519531 191.894531 185.144531 191.503906 Z M 238.527344 119.699219 C 240.179688 130.769531 237.152344 141.511719 230.949219 149.910156 C 224.738281 158.304688 215.351562 164.339844 204.28125 165.996094 L 158.976562 172.773438 C 136.828125 176.089844 115.992188 160.675781 112.679688 138.527344 L 111.925781 133.496094 C 110.269531 122.429688 113.296875 111.683594 119.503906 103.285156 C 125.714844 94.894531 135.105469 88.855469 146.171875 87.199219 L 191.476562 80.421875 C 213.625 77.105469 234.457031 92.519531 237.773438 114.667969 Z M 220.945312 117.875 L 221.496094 121.554688 C 222.707031 129.640625 220.496094 137.496094 215.957031 143.632812 C 211.421875 149.769531 204.558594 154.179688 196.46875 155.390625 L 163.351562 160.347656 C 147.160156 162.769531 131.929688 151.503906 129.507812 135.3125 L 128.957031 131.632812 C 127.746094 123.539062 129.957031 115.6875 134.496094 109.554688 C 139.035156 103.417969 145.898438 99.007812 153.992188 97.796875 L 187.109375 92.839844 C 203.296875 90.421875 218.523438 101.6875 220.945312 117.875 Z M 220.945312 117.875 " fill-opacity="1" fill-rule="evenodd"/></g></g></g><g clip-path="url(#38cadc66f9)"><g clip-path="url(#d48e5e1029)"><g clip-path="url(#d9e7c6ab43)"><path fill="#1ae5be" d="M 192.28125 193.277344 C 194.257812 194.746094 195.675781 196.960938 196.066406 199.585938 C 196.460938 202.207031 195.753906 204.742188 194.292969 206.722656 C 192.828125 208.703125 190.609375 210.121094 187.988281 210.515625 C 185.363281 210.90625 182.828125 210.199219 180.847656 208.734375 C 178.871094 207.273438 177.453125 205.050781 177.0625 202.429688 C 176.667969 199.804688 177.378906 197.269531 178.835938 195.289062 C 180.296875 193.3125 182.519531 191.890625 185.140625 191.5 C 187.769531 191.109375 190.304688 191.816406 192.28125 193.277344 Z M 157.785156 120.652344 C 156.003906 120.058594 154.15625 119.945312 152.378906 120.25 C 150.613281 120.554688 148.925781 121.277344 147.445312 122.359375 C 144.125 124.785156 141.839844 129.015625 142.160156 134.394531 C 142.191406 134.929688 142.425781 135.386719 142.847656 135.71875 C 143.265625 136.054688 143.761719 136.179688 144.296875 136.09375 L 144.6875 136.023438 C 145.613281 135.871094 146.261719 135.050781 146.210938 134.121094 C 146 130.261719 147.558594 127.296875 149.832031 125.636719 C 150.808594 124.921875 151.910156 124.445312 153.058594 124.25 C 154.191406 124.054688 155.371094 124.125 156.511719 124.503906 C 159.289062 125.429688 161.851562 128.191406 163.085938 133.316406 C 163.308594 134.253906 164.214844 134.855469 165.167969 134.695312 L 165.550781 134.632812 C 166.070312 134.546875 166.484375 134.28125 166.777344 133.839844 C 167.070312 133.398438 167.152344 132.914062 167.03125 132.398438 C 165.425781 125.695312 161.789062 121.984375 157.785156 120.652344 Z M 201.054688 114.339844 C 199.324219 113.738281 197.496094 113.546875 195.71875 113.773438 C 193.933594 114 192.199219 114.648438 190.671875 115.738281 C 187.230469 118.183594 184.835938 122.796875 185.265625 129.679688 C 185.292969 130.207031 185.523438 130.644531 185.929688 130.980469 C 186.339844 131.316406 186.8125 131.453125 187.335938 131.382812 L 187.722656 131.328125 C 188.675781 131.203125 189.367188 130.363281 189.308594 129.402344 C 188.988281 124.144531 190.628906 120.75 193.015625 119.050781 C 193.992188 118.355469 195.101562 117.941406 196.242188 117.796875 C 197.394531 117.648438 198.589844 117.78125 199.734375 118.175781 C 202.394531 119.097656 204.753906 121.480469 205.679688 125.230469 C 205.902344 126.140625 206.761719 126.730469 207.691406 126.605469 L 208.085938 126.558594 C 208.621094 126.484375 209.054688 126.222656 209.359375 125.777344 C 209.664062 125.332031 209.757812 124.828125 209.628906 124.308594 C 208.363281 119.0625 204.941406 115.6875 201.054688 114.339844 Z M 201.054688 114.339844 " fill-opacity="1" fill-rule="nonzero"/></g></g></g><g clip-path="url(#e2d42ef0a3)"><g clip-path="url(#cd92a0494c)"><path stroke-linecap="butt" transform="matrix(0.75, 0, 0, 0.75, 105.080131, 244.659301)" fill="none" stroke-linejoin="miter" d="M 47.117117 0.00114069 L 165.195242 0.00114069 C 191.216075 0.00114069 212.315034 21.094891 212.315034 47.115724 C 212.315034 73.136557 191.216075 94.230308 165.195242 94.230308 L 47.117117 94.230308 C 21.096283 94.230308 0.0025334 73.136557 0.0025334 47.115724 C 0.0025334 21.094891 21.096283 0.00114069 47.117117 0.00114069 Z M 47.117117 0.00114069 " stroke="#283389" stroke-width="18" stroke-opacity="1" stroke-miterlimit="4"/></g></g><g clip-path="url(#28f735c0bd)"><g clip-path="url(#87e78e1c18)"><path fill="#283389" d="M 116.601562 255.882812 L 186.683594 255.882812 L 186.683594 304.109375 L 116.601562 304.109375 Z M 116.601562 255.882812 " fill-opacity="1" fill-rule="nonzero"/></g></g><g fill="#1ae5be" fill-opacity="1"><g transform="translate(127.634288, 293.220731)"><g><path d="M 0.203125 0 L 11.265625 -28.453125 L 19.390625 -28.453125 L 30.453125 0 L 21.703125 0 L 20.171875 -4.03125 L 10.453125 -4.03125 L 8.90625 0 Z M 12.15625 -10.046875 L 18.5 -10.046875 L 15.328125 -18.859375 Z M 12.15625 -10.046875 "/></g></g></g><g fill="#1ae5be" fill-opacity="1"><g transform="translate(161.376058, 293.220731)"><g><path d="M 3.015625 0 L 3.015625 -28.453125 L 11.21875 -28.453125 L 11.21875 0 Z M 3.015625 0 "/></g></g></g><g fill="#283389" fill-opacity="1"><g transform="translate(185.38173, 294.81452)"><g><path d="M 3.21875 0 L 3.21875 -30.453125 L 17.09375 -30.453125 C 19.5625 -30.453125 21.6875 -30.007812 23.46875 -29.125 C 25.25 -28.238281 26.625 -26.984375 27.59375 -25.359375 C 28.570312 -23.734375 29.0625 -21.789062 29.0625 -19.53125 C 29.0625 -17.414062 28.625 -15.566406 27.75 -13.984375 C 26.882812 -12.398438 25.640625 -11.160156 24.015625 -10.265625 L 29.625 0 L 19.65625 0 L 15.3125 -8.65625 L 12 -8.65625 L 12 0 Z M 11.828125 -15.65625 L 15.921875 -15.65625 C 17.316406 -15.65625 18.382812 -15.988281 19.125 -16.65625 C 19.863281 -17.320312 20.234375 -18.265625 20.234375 -19.484375 C 20.234375 -20.703125 19.863281 -21.632812 19.125 -22.28125 C 18.382812 -22.9375 17.316406 -23.265625 15.921875 -23.265625 L 11.828125 -23.265625 Z M 11.828125 -15.65625 "/></g></g></g><g fill="#283389" fill-opacity="1"><g transform="translate(216.696412, 294.81452)"><g><path d="M 0.21875 0 L 12.046875 -30.453125 L 20.75 -30.453125 L 32.578125 0 L 23.234375 0 L 21.578125 -4.3125 L 11.171875 -4.3125 L 9.53125 0 Z M 13 -10.75 L 19.796875 -10.75 L 16.40625 -20.1875 Z M 13 -10.75 "/></g></g></g><g fill="#283389" fill-opacity="1"><g transform="translate(126.616783, 333.468876)"><g><path d="M 0.28125 -6.4375 L 0.28125 -7.203125 C 0.28125 -7.347656 0.351562 -7.421875 0.5 -7.421875 L 5.59375 -7.421875 C 5.65625 -7.421875 5.703125 -7.398438 5.734375 -7.359375 C 5.773438 -7.316406 5.796875 -7.265625 5.796875 -7.203125 L 5.796875 -6.4375 C 5.796875 -6.289062 5.726562 -6.21875 5.59375 -6.21875 L 3.71875 -6.21875 L 3.71875 -0.203125 C 3.71875 -0.0664062 3.644531 0 3.5 0 L 2.5625 0 C 2.414062 0 2.34375 -0.0664062 2.34375 -0.203125 L 2.34375 -6.21875 L 0.5 -6.21875 C 0.4375 -6.21875 0.382812 -6.234375 0.34375 -6.265625 C 0.300781 -6.304688 0.28125 -6.363281 0.28125 -6.4375 Z M 0.28125 -6.4375 "/></g></g></g><g fill="#283389" fill-opacity="1"><g transform="translate(137.998377, 333.468876)"><g><path d="M 6.25 -1.3125 C 6.34375 -1.3125 6.414062 -1.285156 6.46875 -1.234375 C 6.519531 -1.179688 6.546875 -1.113281 6.546875 -1.03125 L 6.546875 -0.21875 C 6.546875 -0.15625 6.523438 -0.101562 6.484375 -0.0625 C 6.453125 -0.0195312 6.398438 0 6.328125 0 L 1.109375 0 C 0.960938 0 0.890625 -0.0703125 0.890625 -0.21875 L 0.890625 -7.203125 C 0.890625 -7.347656 0.960938 -7.421875 1.109375 -7.421875 L 6.21875 -7.421875 C 6.289062 -7.421875 6.347656 -7.398438 6.390625 -7.359375 C 6.429688 -7.316406 6.453125 -7.265625 6.453125 -7.203125 L 6.453125 -6.328125 C 6.453125 -6.179688 6.375 -6.109375 6.21875 -6.109375 L 2.265625 -6.109375 L 2.265625 -4.0625 L 5.359375 -4.0625 C 5.441406 -4.0625 5.503906 -4.039062 5.546875 -4 C 5.597656 -3.96875 5.625 -3.910156 5.625 -3.828125 L 5.625 -3.015625 C 5.625 -2.953125 5.597656 -2.898438 5.546875 -2.859375 C 5.503906 -2.816406 5.441406 -2.796875 5.359375 -2.796875 L 2.265625 -2.796875 L 2.265625 -1.3125 Z M 6.25 -1.3125 "/></g></g></g><g fill="#283389" fill-opacity="1"><g transform="translate(150.346389, 333.468876)"><g><path d="M 5.78125 -1.78125 C 5.84375 -1.820312 5.90625 -1.84375 5.96875 -1.84375 C 6.03125 -1.84375 6.082031 -1.816406 6.125 -1.765625 L 6.671875 -0.921875 C 6.703125 -0.890625 6.707031 -0.84375 6.6875 -0.78125 C 6.664062 -0.726562 6.628906 -0.679688 6.578125 -0.640625 C 6.378906 -0.492188 6.148438 -0.363281 5.890625 -0.25 C 5.640625 -0.132812 5.378906 -0.046875 5.109375 0.015625 C 4.835938 0.0859375 4.578125 0.125 4.328125 0.125 C 3.890625 0.125 3.472656 0.0625 3.078125 -0.0625 C 2.691406 -0.195312 2.335938 -0.378906 2.015625 -0.609375 C 1.691406 -0.835938 1.410156 -1.109375 1.171875 -1.421875 C 0.941406 -1.742188 0.757812 -2.097656 0.625 -2.484375 C 0.5 -2.867188 0.4375 -3.273438 0.4375 -3.703125 C 0.4375 -4.128906 0.5 -4.535156 0.625 -4.921875 C 0.757812 -5.304688 0.941406 -5.65625 1.171875 -5.96875 C 1.410156 -6.289062 1.691406 -6.566406 2.015625 -6.796875 C 2.335938 -7.035156 2.691406 -7.21875 3.078125 -7.34375 C 3.472656 -7.46875 3.890625 -7.53125 4.328125 -7.53125 C 4.578125 -7.53125 4.835938 -7.5 5.109375 -7.4375 C 5.378906 -7.375 5.644531 -7.285156 5.90625 -7.171875 C 6.164062 -7.054688 6.398438 -6.914062 6.609375 -6.75 C 6.660156 -6.707031 6.691406 -6.660156 6.703125 -6.609375 C 6.710938 -6.554688 6.703125 -6.507812 6.671875 -6.46875 L 6.125 -5.625 C 6.09375 -5.582031 6.046875 -5.554688 5.984375 -5.546875 C 5.929688 -5.546875 5.867188 -5.570312 5.796875 -5.625 C 5.597656 -5.800781 5.363281 -5.929688 5.09375 -6.015625 C 4.832031 -6.109375 4.578125 -6.15625 4.328125 -6.15625 C 3.972656 -6.15625 3.644531 -6.09375 3.34375 -5.96875 C 3.039062 -5.84375 2.773438 -5.664062 2.546875 -5.4375 C 2.316406 -5.21875 2.132812 -4.957031 2 -4.65625 C 1.875 -4.363281 1.8125 -4.046875 1.8125 -3.703125 C 1.8125 -3.359375 1.875 -3.035156 2 -2.734375 C 2.132812 -2.441406 2.316406 -2.179688 2.546875 -1.953125 C 2.773438 -1.734375 3.039062 -1.5625 3.34375 -1.4375 C 3.644531 -1.320312 3.972656 -1.265625 4.328125 -1.265625 C 4.566406 -1.265625 4.816406 -1.304688 5.078125 -1.390625 C 5.347656 -1.484375 5.582031 -1.613281 5.78125 -1.78125 Z M 5.78125 -1.78125 "/></g></g></g><g fill="#283389" fill-opacity="1"><g transform="translate(162.835953, 333.468876)"><g><path d="M 7.171875 -7.421875 C 7.273438 -7.421875 7.328125 -7.367188 7.328125 -7.265625 L 7.328125 -0.15625 C 7.328125 -0.0507812 7.273438 0 7.171875 0 L 6.109375 0 C 6.003906 0 5.953125 -0.0507812 5.953125 -0.15625 L 5.953125 -2.359375 L 2.265625 -2.359375 L 2.265625 -0.15625 C 2.265625 -0.0507812 2.210938 0 2.109375 0 L 1.046875 0 C 0.941406 0 0.890625 -0.0507812 0.890625 -0.15625 L 0.890625 -7.265625 C 0.890625 -7.367188 0.941406 -7.421875 1.046875 -7.421875 L 2.109375 -7.421875 C 2.210938 -7.421875 2.265625 -7.367188 2.265625 -7.265625 L 2.265625 -3.5625 L 5.953125 -3.5625 L 5.953125 -7.265625 C 5.953125 -7.367188 6.003906 -7.421875 6.109375 -7.421875 Z M 7.171875 -7.421875 "/></g></g></g><g fill="#283389" fill-opacity="1"><g transform="translate(176.350508, 333.468876)"><g><path d="M 7.328125 -7.421875 C 7.429688 -7.421875 7.484375 -7.367188 7.484375 -7.265625 L 7.484375 -0.125 C 7.484375 -0.0625 7.460938 -0.0078125 7.421875 0.03125 C 7.390625 0.0703125 7.347656 0.09375 7.296875 0.09375 C 7.234375 0.09375 7.179688 0.0703125 7.140625 0.03125 C 7.097656 0 7.046875 -0.0351562 6.984375 -0.078125 L 2.265625 -4.5625 L 2.265625 -0.15625 C 2.265625 -0.0507812 2.210938 0 2.109375 0 L 1.046875 0 C 0.941406 0 0.890625 -0.0507812 0.890625 -0.15625 L 0.890625 -7.296875 C 0.890625 -7.359375 0.90625 -7.410156 0.9375 -7.453125 C 0.96875 -7.492188 1.007812 -7.515625 1.0625 -7.515625 L 1.078125 -7.515625 C 1.128906 -7.515625 1.175781 -7.492188 1.21875 -7.453125 C 1.257812 -7.421875 1.304688 -7.382812 1.359375 -7.34375 L 6.109375 -2.84375 L 6.109375 -7.265625 C 6.109375 -7.367188 6.164062 -7.421875 6.28125 -7.421875 Z M 7.328125 -7.421875 "/></g></g></g><g fill="#283389" fill-opacity="1"><g transform="translate(190.021253, 333.468876)"><g><path d="M 0.4375 -3.703125 C 0.4375 -4.128906 0.5 -4.535156 0.625 -4.921875 C 0.757812 -5.304688 0.941406 -5.65625 1.171875 -5.96875 C 1.410156 -6.289062 1.6875 -6.566406 2 -6.796875 C 2.320312 -7.035156 2.675781 -7.21875 3.0625 -7.34375 C 3.445312 -7.46875 3.851562 -7.53125 4.28125 -7.53125 C 4.71875 -7.53125 5.128906 -7.46875 5.515625 -7.34375 C 5.898438 -7.21875 6.25 -7.035156 6.5625 -6.796875 C 6.882812 -6.566406 7.160156 -6.289062 7.390625 -5.96875 C 7.628906 -5.65625 7.8125 -5.304688 7.9375 -4.921875 C 8.070312 -4.535156 8.140625 -4.128906 8.140625 -3.703125 C 8.140625 -3.265625 8.070312 -2.851562 7.9375 -2.46875 C 7.8125 -2.09375 7.628906 -1.742188 7.390625 -1.421875 C 7.160156 -1.109375 6.882812 -0.835938 6.5625 -0.609375 C 6.25 -0.378906 5.898438 -0.195312 5.515625 -0.0625 C 5.128906 0.0625 4.71875 0.125 4.28125 0.125 C 3.851562 0.125 3.445312 0.0625 3.0625 -0.0625 C 2.675781 -0.195312 2.320312 -0.378906 2 -0.609375 C 1.6875 -0.835938 1.410156 -1.109375 1.171875 -1.421875 C 0.941406 -1.742188 0.757812 -2.09375 0.625 -2.46875 C 0.5 -2.851562 0.4375 -3.265625 0.4375 -3.703125 Z M 1.8125 -3.703125 C 1.8125 -3.347656 1.875 -3.023438 2 -2.734375 C 2.125 -2.441406 2.300781 -2.179688 2.53125 -1.953125 C 2.757812 -1.734375 3.019531 -1.5625 3.3125 -1.4375 C 3.613281 -1.320312 3.9375 -1.265625 4.28125 -1.265625 C 4.632812 -1.265625 4.957031 -1.320312 5.25 -1.4375 C 5.550781 -1.5625 5.8125 -1.734375 6.03125 -1.953125 C 6.257812 -2.179688 6.4375 -2.441406 6.5625 -2.734375 C 6.695312 -3.023438 6.765625 -3.347656 6.765625 -3.703125 C 6.765625 -4.046875 6.695312 -4.363281 6.5625 -4.65625 C 6.4375 -4.957031 6.257812 -5.21875 6.03125 -5.4375 C 5.8125 -5.664062 5.550781 -5.84375 5.25 -5.96875 C 4.957031 -6.09375 4.632812 -6.15625 4.28125 -6.15625 C 3.9375 -6.15625 3.613281 -6.09375 3.3125 -5.96875 C 3.019531 -5.84375 2.757812 -5.664062 2.53125 -5.4375 C 2.3125 -5.21875 2.132812 -4.957031 2 -4.65625 C 1.875 -4.363281 1.8125 -4.046875 1.8125 -3.703125 Z M 1.8125 -3.703125 "/></g></g></g><g fill="#283389" fill-opacity="1"><g transform="translate(203.892109, 333.468876)"><g><path d="M 5.609375 -1.21875 C 5.722656 -1.21875 5.78125 -1.160156 5.78125 -1.046875 L 5.78125 -0.171875 C 5.78125 -0.0546875 5.722656 0 5.609375 0 L 1.046875 0 C 0.941406 0 0.890625 -0.0546875 0.890625 -0.171875 L 0.890625 -7.265625 C 0.890625 -7.367188 0.941406 -7.421875 1.046875 -7.421875 L 2.109375 -7.421875 C 2.210938 -7.421875 2.265625 -7.367188 2.265625 -7.265625 L 2.265625 -1.21875 Z M 5.609375 -1.21875 "/></g></g></g><g fill="#283389" fill-opacity="1"><g transform="translate(215.156563, 333.468876)"><g><path d="M 0.4375 -3.703125 C 0.4375 -4.128906 0.5 -4.535156 0.625 -4.921875 C 0.757812 -5.304688 0.941406 -5.65625 1.171875 -5.96875 C 1.410156 -6.289062 1.6875 -6.566406 2 -6.796875 C 2.320312 -7.035156 2.675781 -7.21875 3.0625 -7.34375 C 3.445312 -7.46875 3.851562 -7.53125 4.28125 -7.53125 C 4.71875 -7.53125 5.128906 -7.46875 5.515625 -7.34375 C 5.898438 -7.21875 6.25 -7.035156 6.5625 -6.796875 C 6.882812 -6.566406 7.160156 -6.289062 7.390625 -5.96875 C 7.628906 -5.65625 7.8125 -5.304688 7.9375 -4.921875 C 8.070312 -4.535156 8.140625 -4.128906 8.140625 -3.703125 C 8.140625 -3.265625 8.070312 -2.851562 7.9375 -2.46875 C 7.8125 -2.09375 7.628906 -1.742188 7.390625 -1.421875 C 7.160156 -1.109375 6.882812 -0.835938 6.5625 -0.609375 C 6.25 -0.378906 5.898438 -0.195312 5.515625 -0.0625 C 5.128906 0.0625 4.71875 0.125 4.28125 0.125 C 3.851562 0.125 3.445312 0.0625 3.0625 -0.0625 C 2.675781 -0.195312 2.320312 -0.378906 2 -0.609375 C 1.6875 -0.835938 1.410156 -1.109375 1.171875 -1.421875 C 0.941406 -1.742188 0.757812 -2.09375 0.625 -2.46875 C 0.5 -2.851562 0.4375 -3.265625 0.4375 -3.703125 Z M 1.8125 -3.703125 C 1.8125 -3.347656 1.875 -3.023438 2 -2.734375 C 2.125 -2.441406 2.300781 -2.179688 2.53125 -1.953125 C 2.757812 -1.734375 3.019531 -1.5625 3.3125 -1.4375 C 3.613281 -1.320312 3.9375 -1.265625 4.28125 -1.265625 C 4.632812 -1.265625 4.957031 -1.320312 5.25 -1.4375 C 5.550781 -1.5625 5.8125 -1.734375 6.03125 -1.953125 C 6.257812 -2.179688 6.4375 -2.441406 6.5625 -2.734375 C 6.695312 -3.023438 6.765625 -3.347656 6.765625 -3.703125 C 6.765625 -4.046875 6.695312 -4.363281 6.5625 -4.65625 C 6.4375 -4.957031 6.257812 -5.21875 6.03125 -5.4375 C 5.8125 -5.664062 5.550781 -5.84375 5.25 -5.96875 C 4.957031 -6.09375 4.632812 -6.15625 4.28125 -6.15625 C 3.9375 -6.15625 3.613281 -6.09375 3.3125 -5.96875 C 3.019531 -5.84375 2.757812 -5.664062 2.53125 -5.4375 C 2.3125 -5.21875 2.132812 -4.957031 2 -4.65625 C 1.875 -4.363281 1.8125 -4.046875 1.8125 -3.703125 Z M 1.8125 -3.703125 "/></g></g></g><g fill="#283389" fill-opacity="1"><g transform="translate(229.027413, 333.468876)"><g><path d="M 6.703125 -3.78125 C 6.816406 -3.78125 6.875 -3.722656 6.875 -3.609375 L 6.875 -0.828125 C 6.875 -0.773438 6.863281 -0.726562 6.84375 -0.6875 C 6.820312 -0.644531 6.789062 -0.609375 6.75 -0.578125 C 6.601562 -0.484375 6.4375 -0.394531 6.25 -0.3125 C 6.0625 -0.226562 5.859375 -0.148438 5.640625 -0.078125 C 5.421875 -0.015625 5.195312 0.03125 4.96875 0.0625 C 4.75 0.101562 4.535156 0.125 4.328125 0.125 C 3.890625 0.125 3.472656 0.0625 3.078125 -0.0625 C 2.691406 -0.195312 2.335938 -0.378906 2.015625 -0.609375 C 1.691406 -0.835938 1.410156 -1.109375 1.171875 -1.421875 C 0.941406 -1.742188 0.757812 -2.097656 0.625 -2.484375 C 0.5 -2.867188 0.4375 -3.273438 0.4375 -3.703125 C 0.4375 -4.128906 0.5 -4.535156 0.625 -4.921875 C 0.757812 -5.316406 0.941406 -5.671875 1.171875 -5.984375 C 1.410156 -6.296875 1.691406 -6.566406 2.015625 -6.796875 C 2.335938 -7.035156 2.691406 -7.21875 3.078125 -7.34375 C 3.472656 -7.46875 3.890625 -7.53125 4.328125 -7.53125 C 4.578125 -7.53125 4.835938 -7.5 5.109375 -7.4375 C 5.378906 -7.382812 5.644531 -7.300781 5.90625 -7.1875 C 6.164062 -7.082031 6.398438 -6.941406 6.609375 -6.765625 C 6.648438 -6.734375 6.675781 -6.6875 6.6875 -6.625 C 6.695312 -6.570312 6.6875 -6.519531 6.65625 -6.46875 L 6.109375 -5.65625 C 6.078125 -5.601562 6.03125 -5.570312 5.96875 -5.5625 C 5.914062 -5.5625 5.863281 -5.582031 5.8125 -5.625 C 5.664062 -5.757812 5.503906 -5.863281 5.328125 -5.9375 C 5.160156 -6.019531 4.988281 -6.078125 4.8125 -6.109375 C 4.644531 -6.140625 4.484375 -6.15625 4.328125 -6.15625 C 3.972656 -6.15625 3.644531 -6.09375 3.34375 -5.96875 C 3.039062 -5.84375 2.773438 -5.671875 2.546875 -5.453125 C 2.316406 -5.234375 2.140625 -4.972656 2.015625 -4.671875 C 1.890625 -4.367188 1.828125 -4.046875 1.828125 -3.703125 C 1.828125 -3.359375 1.882812 -3.035156 2 -2.734375 C 2.125 -2.429688 2.296875 -2.164062 2.515625 -1.9375 C 2.742188 -1.707031 3.007812 -1.523438 3.3125 -1.390625 C 3.625 -1.265625 3.960938 -1.203125 4.328125 -1.203125 C 4.453125 -1.203125 4.585938 -1.21875 4.734375 -1.25 C 4.890625 -1.28125 5.039062 -1.320312 5.1875 -1.375 C 5.332031 -1.4375 5.457031 -1.5 5.5625 -1.5625 L 5.5625 -2.625 L 4.296875 -2.625 C 4.191406 -2.625 4.140625 -2.675781 4.140625 -2.78125 L 4.140625 -3.609375 C 4.140625 -3.722656 4.191406 -3.78125 4.296875 -3.78125 Z M 6.703125 -3.78125 "/></g></g></g><g fill="#283389" fill-opacity="1"><g transform="translate(241.839119, 333.468876)"><g><path d="M 6.234375 -7.421875 C 6.304688 -7.421875 6.359375 -7.398438 6.390625 -7.359375 C 6.421875 -7.316406 6.414062 -7.253906 6.375 -7.171875 L 3.953125 -2.9375 L 3.953125 -0.21875 C 3.953125 -0.0703125 3.878906 0 3.734375 0 L 2.796875 0 C 2.640625 0 2.5625 -0.0703125 2.5625 -0.21875 L 2.5625 -2.9375 L 0.140625 -7.171875 C 0.109375 -7.253906 0.109375 -7.316406 0.140625 -7.359375 C 0.171875 -7.398438 0.222656 -7.421875 0.296875 -7.421875 L 1.40625 -7.421875 C 1.457031 -7.421875 1.503906 -7.398438 1.546875 -7.359375 C 1.597656 -7.328125 1.640625 -7.285156 1.671875 -7.234375 L 3.265625 -4.34375 L 4.859375 -7.234375 C 4.929688 -7.359375 5.019531 -7.421875 5.125 -7.421875 Z M 6.234375 -7.421875 "/></g></g></g></svg>