<svg xmlns="http://www.w3.org/2000/svg" xmlns:xlink="http://www.w3.org/1999/xlink" width="500" zoomAndPan="magnify" viewBox="0 0 375 374.999991" height="500" preserveAspectRatio="xMidYMid meet" version="1.0"><defs><clipPath id="ee7037c371"><path d="M 55 25 L 302 25 L 302 343 L 55 343 Z M 55 25 " clip-rule="nonzero"/></clipPath><clipPath id="8486ac2636"><path d="M 37.5 51.574219 L 280.964844 15.144531 L 327.082031 323.371094 L 83.617188 359.796875 Z M 37.5 51.574219 " clip-rule="nonzero"/></clipPath><clipPath id="61905563cd"><path d="M 37.5 51.574219 L 280.964844 15.144531 L 327.082031 323.371094 L 83.617188 359.796875 Z M 37.5 51.574219 " clip-rule="nonzero"/></clipPath><clipPath id="9481f5c9fb"><path d="M 123 141 L 236 141 L 236 304 L 123 304 Z M 123 141 " clip-rule="nonzero"/></clipPath><clipPath id="8edb83dcd8"><path d="M 37.5 51.574219 L 280.964844 15.144531 L 327.082031 323.371094 L 83.617188 359.796875 Z M 37.5 51.574219 " clip-rule="nonzero"/></clipPath><clipPath id="83f7cb22fd"><path d="M 37.5 51.574219 L 280.964844 15.144531 L 327.082031 323.371094 L 83.617188 359.796875 Z M 37.5 51.574219 " clip-rule="nonzero"/></clipPath><clipPath id="15f8247d9e"><path d="M 178.035156 269.394531 L 213.890625 269.394531 L 213.890625 305.25 L 178.035156 305.25 Z M 178.035156 269.394531 " clip-rule="nonzero"/></clipPath><clipPath id="e65ccb03a8"><path d="M 195.960938 269.394531 C 186.0625 269.394531 178.035156 277.421875 178.035156 287.324219 C 178.035156 297.222656 186.0625 305.25 195.960938 305.25 C 205.863281 305.25 213.890625 297.222656 213.890625 287.324219 C 213.890625 277.421875 205.863281 269.394531 195.960938 269.394531 Z M 195.960938 269.394531 " clip-rule="nonzero"/></clipPath><clipPath id="3009f4d4fb"><path d="M 191 135 L 242 135 L 242 186 L 191 186 Z M 191 135 " clip-rule="nonzero"/></clipPath><clipPath id="c663e85563"><path d="M 188.816406 139.050781 L 238.242188 132.554688 L 244.738281 181.976562 L 195.3125 188.476562 Z M 188.816406 139.050781 " clip-rule="nonzero"/></clipPath><clipPath id="65228c5dc7"><path d="M 213.527344 135.800781 C 199.878906 137.597656 190.269531 150.117188 192.066406 163.765625 C 193.859375 177.414062 206.378906 187.023438 220.027344 185.226562 C 233.675781 183.433594 243.285156 170.914062 241.488281 157.265625 C 239.695312 143.617188 227.175781 134.007812 213.527344 135.800781 Z M 213.527344 135.800781 " clip-rule="nonzero"/></clipPath><clipPath id="ca2222e65f"><path d="M 121 149 L 167 149 L 167 195 L 121 195 Z M 121 149 " clip-rule="nonzero"/></clipPath><clipPath id="e82f88e2a1"><path d="M 118.953125 152.949219 L 163.273438 147.121094 L 169.101562 191.441406 L 124.78125 197.269531 Z M 118.953125 152.949219 " clip-rule="nonzero"/></clipPath><clipPath id="5b53ca1f08"><path d="M 141.113281 150.035156 C 128.875 151.644531 120.257812 162.871094 121.867188 175.109375 C 123.476562 187.347656 134.703125 195.964844 146.941406 194.355469 C 159.179688 192.746094 167.796875 181.519531 166.1875 169.28125 C 164.578125 157.042969 153.355469 148.425781 141.113281 150.035156 Z M 141.113281 150.035156 " clip-rule="nonzero"/></clipPath><clipPath id="f05665cf91"><path d="M 120 148 L 172 148 L 172 179 L 120 179 Z M 120 148 " clip-rule="nonzero"/></clipPath><clipPath id="046ff57a14"><path d="M 120.480469 179.433594 L 116.984375 151.46875 L 168.800781 144.996094 L 172.296875 172.957031 Z M 120.480469 179.433594 " clip-rule="nonzero"/></clipPath><clipPath id="4c232e47a9"><path d="M 120.480469 179.433594 L 116.984375 151.46875 L 168.800781 144.996094 L 172.296875 172.957031 Z M 120.480469 179.433594 " clip-rule="nonzero"/></clipPath><clipPath id="8445642793"><path d="M 120.457031 179.242188 L 116.996094 151.558594 L 168.441406 145.128906 L 171.898438 172.8125 Z M 120.457031 179.242188 " clip-rule="nonzero"/></clipPath><clipPath id="7fb63b07cb"><path d="M 187 140 L 239 140 L 239 171 L 187 171 Z M 187 140 " clip-rule="nonzero"/></clipPath><clipPath id="70a4abac40"><path d="M 188.019531 170.902344 L 184.523438 142.9375 L 235.519531 136.566406 L 239.011719 164.53125 Z M 188.019531 170.902344 " clip-rule="nonzero"/></clipPath><clipPath id="edf9c04c33"><path d="M 188.019531 170.902344 L 184.523438 142.9375 L 235.519531 136.566406 L 239.011719 164.53125 Z M 188.019531 170.902344 " clip-rule="nonzero"/></clipPath><clipPath id="4a5c353b59"><path d="M 187.996094 170.710938 L 184.59375 143.476562 L 235.199219 137.148438 L 238.605469 164.386719 Z M 187.996094 170.710938 " clip-rule="nonzero"/></clipPath></defs><g clip-path="url(#ee7037c371)"><g clip-path="url(#8486ac2636)"><g clip-path="url(#61905563cd)"><path fill="#283389" d="M 280.726562 99.628906 C 274.144531 78.617188 262.511719 53.074219 249.625 38.511719 C 243.835938 31.964844 237.550781 27.355469 230.917969 25.738281 C 223.117188 23.828125 215.597656 25.820312 208.785156 33.082031 C 202.359375 39.921875 196.574219 52.167969 191.953125 71.515625 L 138.527344 79.511719 C 128.445312 62.363281 119.332031 52.351562 111.183594 47.683594 C 102.542969 42.734375 94.773438 43.03125 87.867188 47.140625 C 82.007812 50.625 77.339844 56.875 73.71875 64.832031 C 65.609375 82.664062 61.960938 110.792969 61.875 132.890625 C 56.265625 146.542969 54.136719 161.8125 56.46875 177.394531 L 57.722656 185.765625 C 62.898438 220.363281 88.636719 247.058594 120.644531 255.273438 C 120.558594 261.925781 120.945312 268.367188 121.808594 274.53125 C 124.394531 293.054688 131.226562 308.953125 141.800781 320.742188 C 152.652344 332.847656 167.253906 340.523438 185.066406 342.226562 C 191.324219 342.824219 198.015625 342.664062 205.121094 341.675781 L 205.25 341.65625 C 212.332031 340.523438 218.777344 338.714844 224.589844 336.3125 C 241.121094 329.464844 252.839844 317.855469 259.671875 303.105469 C 266.324219 288.746094 268.214844 271.542969 265.261719 253.066406 C 264.277344 246.929688 262.769531 240.65625 260.738281 234.316406 C 270.175781 228.558594 278.335938 221.023438 284.824219 212.261719 C 297.730469 194.820312 304.007812 172.472656 300.5625 149.441406 L 299.308594 141.066406 C 296.945312 125.265625 290.300781 111.121094 280.726562 99.628906 Z M 221.082031 44.613281 C 223.191406 42.371094 225.15625 41.671875 226.953125 42.117188 C 229.929688 42.839844 233.371094 45.609375 236.992188 49.707031 C 243.316406 56.863281 249.378906 67.320312 254.539062 78.527344 C 251.15625 76.765625 247.648438 75.226562 244.042969 73.917969 C 244.042969 73.917969 244.050781 73.917969 244.050781 73.917969 C 234.894531 55.890625 225.117188 47.925781 218.742188 68.984375 C 215.839844 68.875 212.917969 68.910156 209.964844 69.105469 C 213.386719 56.617188 217.152344 48.792969 221.082031 44.613281 Z M 89.082031 71.828125 C 91.347656 66.851562 93.824219 63.203125 96.460938 61.632812 C 98.054688 60.679688 100.140625 60.777344 102.804688 62.304688 C 107.78125 65.15625 113.675781 71.535156 120.613281 82.480469 C 118.296875 83.03125 116.015625 83.679688 113.785156 84.410156 C 101.84375 66.816406 94.90625 76.605469 91.382812 95.742188 C 87.574219 98.449219 84.003906 101.460938 80.714844 104.730469 C 82.363281 92.433594 85.109375 80.570312 89.082031 71.828125 Z M 244.367188 296.027344 C 239.320312 306.929688 230.574219 315.546875 218.171875 320.679688 C 213.484375 322.617188 208.324219 324.074219 202.6875 324.980469 C 197.035156 325.761719 191.675781 325.890625 186.625 325.402344 C 173.265625 324.121094 162.378906 318.441406 154.359375 309.496094 C 146.054688 300.234375 140.632812 287.390625 138.511719 272.164062 C 137.871094 267.59375 137.539062 262.796875 137.519531 257.804688 C 142.929688 258.0625 148.441406 257.800781 153.988281 256.96875 L 185.285156 252.285156 L 187.441406 266.703125 C 184.09375 268.324219 181.238281 270.734375 179.078125 273.652344 C 175.613281 278.335938 173.933594 284.339844 174.863281 290.554688 C 175.792969 296.765625 179.152344 302.019531 183.839844 305.484375 C 188.523438 308.945312 194.53125 310.628906 200.746094 309.699219 C 206.957031 308.769531 212.210938 305.410156 215.671875 300.722656 C 219.136719 296.039062 220.816406 290.03125 219.886719 283.816406 C 218.957031 277.605469 215.59375 272.351562 210.910156 268.890625 C 207.992188 266.730469 204.554688 265.261719 200.878906 264.691406 L 198.722656 250.277344 L 229.34375 245.695312 C 234.894531 244.863281 240.238281 243.503906 245.34375 241.671875 C 246.785156 246.449219 247.863281 251.128906 248.59375 255.683594 C 251.027344 270.867188 249.597656 284.734375 244.367188 296.027344 Z M 195.011719 271.382812 C 199.375 270.730469 203.59375 271.910156 206.886719 274.347656 C 210.171875 276.78125 212.535156 280.46875 213.1875 284.835938 C 213.839844 289.199219 212.660156 293.417969 210.234375 296.710938 C 207.796875 300.003906 204.109375 302.363281 199.746094 303.015625 C 195.378906 303.667969 191.164062 302.492188 187.871094 300.054688 C 184.578125 297.625 182.222656 293.929688 181.570312 289.566406 C 180.914062 285.203125 182.09375 280.984375 184.523438 277.691406 C 186.960938 274.398438 190.648438 272.035156 195.011719 271.382812 Z M 283.8125 151.9375 C 286.570312 170.351562 281.53125 188.226562 271.207031 202.191406 C 260.878906 216.15625 245.265625 226.195312 226.847656 228.953125 L 151.484375 240.230469 C 114.640625 245.742188 79.980469 220.105469 74.46875 183.261719 L 73.214844 174.886719 C 70.460938 156.476562 75.496094 138.601562 85.820312 124.636719 C 96.152344 110.675781 111.773438 100.628906 130.183594 97.875 L 205.546875 86.597656 C 242.390625 81.085938 277.046875 106.722656 282.5625 143.566406 Z M 254.574219 148.902344 L 255.488281 155.023438 C 257.5 168.476562 253.824219 181.542969 246.273438 191.75 C 238.722656 201.957031 227.308594 209.296875 213.851562 211.3125 L 158.761719 219.554688 C 131.824219 223.582031 106.492188 204.84375 102.460938 177.910156 L 101.546875 171.789062 C 99.53125 158.328125 103.210938 145.261719 110.761719 135.0625 C 118.3125 124.855469 129.726562 117.515625 143.191406 115.5 L 198.28125 107.257812 C 225.210938 103.234375 250.542969 121.972656 254.574219 148.902344 Z M 254.574219 148.902344 " fill-opacity="1" fill-rule="evenodd"/></g></g></g><g clip-path="url(#9481f5c9fb)"><g clip-path="url(#8edb83dcd8)"><g clip-path="url(#83f7cb22fd)"><path fill="#1ae5be" d="M 206.886719 274.339844 C 210.171875 276.777344 212.53125 280.464844 213.1875 284.828125 C 213.839844 289.191406 212.660156 293.410156 210.230469 296.703125 C 207.796875 299.996094 204.109375 302.355469 199.742188 303.007812 C 195.378906 303.664062 191.160156 302.484375 187.867188 300.046875 C 184.574219 297.617188 182.21875 293.921875 181.566406 289.558594 C 180.914062 285.195312 182.09375 280.976562 184.523438 277.683594 C 186.953125 274.390625 190.644531 272.03125 195.011719 271.375 C 199.382812 270.730469 203.601562 271.910156 206.886719 274.339844 Z M 149.5 153.523438 C 146.539062 152.535156 143.464844 152.347656 140.511719 152.855469 C 137.570312 153.363281 134.761719 154.558594 132.300781 156.359375 C 126.777344 160.398438 122.972656 167.433594 123.507812 176.382812 C 123.558594 177.277344 123.949219 178.03125 124.652344 178.585938 C 125.351562 179.144531 126.175781 179.355469 127.0625 179.207031 L 127.714844 179.097656 C 129.25 178.835938 130.335938 177.476562 130.246094 175.925781 C 129.898438 169.511719 132.488281 164.574219 136.269531 161.8125 C 137.894531 160.625 139.730469 159.832031 141.636719 159.503906 C 143.519531 159.179688 145.484375 159.300781 147.382812 159.933594 C 152.003906 161.472656 156.265625 166.066406 158.320312 174.589844 C 158.691406 176.148438 160.199219 177.148438 161.78125 176.882812 L 162.417969 176.78125 C 163.285156 176.636719 163.972656 176.191406 164.460938 175.457031 C 164.945312 174.722656 165.085938 173.917969 164.886719 173.0625 C 162.214844 161.914062 156.160156 155.742188 149.5 153.523438 Z M 221.484375 143.023438 C 218.601562 142.023438 215.558594 141.699219 212.605469 142.078125 C 209.632812 142.457031 206.75 143.535156 204.207031 145.347656 C 198.484375 149.414062 194.503906 157.089844 195.210938 168.539062 C 195.265625 169.417969 195.640625 170.144531 196.320312 170.707031 C 197 171.265625 197.789062 171.488281 198.660156 171.375 L 199.300781 171.285156 C 200.890625 171.074219 202.039062 169.675781 201.9375 168.078125 C 201.410156 159.335938 204.140625 153.683594 208.105469 150.859375 C 209.734375 149.703125 211.578125 149.011719 213.476562 148.769531 C 215.394531 148.527344 217.382812 148.746094 219.285156 149.40625 C 223.707031 150.9375 227.636719 154.902344 229.171875 161.140625 C 229.542969 162.652344 230.976562 163.632812 232.523438 163.429688 L 233.179688 163.34375 C 234.070312 163.226562 234.789062 162.792969 235.296875 162.046875 C 235.804688 161.308594 235.960938 160.472656 235.746094 159.605469 C 233.640625 150.878906 227.945312 145.261719 221.484375 143.023438 Z M 221.484375 143.023438 " fill-opacity="1" fill-rule="nonzero"/></g></g></g><g clip-path="url(#15f8247d9e)"><g clip-path="url(#e65ccb03a8)"><path fill="#283389" d="M 178.035156 269.394531 L 213.890625 269.394531 L 213.890625 305.25 L 178.035156 305.25 Z M 178.035156 269.394531 " fill-opacity="1" fill-rule="nonzero"/></g></g><g clip-path="url(#3009f4d4fb)"><g clip-path="url(#c663e85563)"><g clip-path="url(#65228c5dc7)"><path fill="#283389" d="M 188.816406 139.050781 L 238.242188 132.554688 L 244.738281 181.976562 L 195.3125 188.476562 Z M 188.816406 139.050781 " fill-opacity="1" fill-rule="nonzero"/></g></g></g><g clip-path="url(#ca2222e65f)"><g clip-path="url(#e82f88e2a1)"><g clip-path="url(#5b53ca1f08)"><path fill="#283389" d="M 118.953125 152.949219 L 163.273438 147.121094 L 169.101562 191.441406 L 124.78125 197.269531 Z M 118.953125 152.949219 " fill-opacity="1" fill-rule="nonzero"/></g></g></g><g clip-path="url(#f05665cf91)"><g clip-path="url(#046ff57a14)"><g clip-path="url(#4c232e47a9)"><g clip-path="url(#8445642793)"><path fill="#1ae5be" d="M 120.632812 174.789062 C 119.773438 175.9375 120.007812 177.5625 121.152344 178.421875 C 122.269531 179.261719 123.851562 179.0625 124.726562 177.976562 L 143.417969 153.945312 L 167.449219 172.636719 C 168.59375 173.496094 170.222656 173.265625 171.074219 172.117188 C 171.914062 171.003906 171.722656 169.421875 170.632812 168.542969 L 145.726562 149.167969 C 143.949219 147.785156 141.390625 148.105469 140.007812 149.882812 L 120.632812 174.789062 " fill-opacity="1" fill-rule="nonzero"/></g></g></g></g><g clip-path="url(#7fb63b07cb)"><g clip-path="url(#70a4abac40)"><g clip-path="url(#edf9c04c33)"><g clip-path="url(#4a5c353b59)"><path fill="#1ae5be" d="M 188.167969 166.332031 C 187.324219 167.457031 187.550781 169.058594 188.679688 169.902344 C 189.777344 170.730469 191.335938 170.535156 192.199219 169.464844 L 210.585938 145.824219 L 234.222656 164.210938 C 235.351562 165.058594 236.953125 164.828125 237.792969 163.703125 C 238.617188 162.605469 238.429688 161.050781 237.359375 160.183594 L 212.855469 141.125 C 211.105469 139.765625 208.589844 140.078125 207.230469 141.828125 L 188.167969 166.332031 " fill-opacity="1" fill-rule="nonzero"/></g></g></g></g></svg>