<svg xmlns="http://www.w3.org/2000/svg" xmlns:xlink="http://www.w3.org/1999/xlink" width="500" zoomAndPan="magnify" viewBox="0 0 375 374.999991" height="500" preserveAspectRatio="xMidYMid meet" version="1.0"><defs><g/><clipPath id="7dfae78d31"><path d="M 12 69 L 178 69 L 178 283 L 12 283 Z M 12 69 " clip-rule="nonzero"/></clipPath><clipPath id="cc7d51d79e"><path d="M 0 86.886719 L 163.5625 62.417969 L 194.605469 269.894531 L 31.042969 294.367188 Z M 0 86.886719 " clip-rule="nonzero"/></clipPath><clipPath id="3e73e6a999"><path d="M 0 86.886719 L 163.5625 62.417969 L 194.605469 269.894531 L 31.042969 294.367188 Z M 0 86.886719 " clip-rule="nonzero"/></clipPath><clipPath id="dfbe976a13"><path d="M 57 147 L 134 147 L 134 257 L 57 257 Z M 57 147 " clip-rule="nonzero"/></clipPath><clipPath id="8ae17e8a96"><path d="M 0 86.886719 L 163.5625 62.417969 L 194.605469 269.894531 L 31.042969 294.367188 Z M 0 86.886719 " clip-rule="nonzero"/></clipPath><clipPath id="00dbee01c1"><path d="M 0 86.886719 L 163.5625 62.417969 L 194.605469 269.894531 L 31.042969 294.367188 Z M 0 86.886719 " clip-rule="nonzero"/></clipPath><clipPath id="ff92d2844f"><path d="M 92.828125 231.695312 L 120.566406 231.695312 L 120.566406 259.433594 L 92.828125 259.433594 Z M 92.828125 231.695312 " clip-rule="nonzero"/></clipPath><clipPath id="b42e4ed92e"><path d="M 106.699219 231.695312 C 99.039062 231.695312 92.828125 237.90625 92.828125 245.5625 C 92.828125 253.222656 99.039062 259.433594 106.699219 259.433594 C 114.359375 259.433594 120.566406 253.222656 120.566406 245.5625 C 120.566406 237.90625 114.359375 231.695312 106.699219 231.695312 Z M 106.699219 231.695312 " clip-rule="nonzero"/></clipPath><clipPath id="ab56b47f69"><path d="M 103 142 L 137 142 L 137 177 L 103 177 Z M 103 142 " clip-rule="nonzero"/></clipPath><clipPath id="7f63c7148d"><path d="M 101.136719 145.0625 L 134.378906 140.691406 L 138.746094 173.933594 L 105.507812 178.300781 Z M 101.136719 145.0625 " clip-rule="nonzero"/></clipPath><clipPath id="629fd6eb66"><path d="M 117.757812 142.878906 C 108.578125 144.085938 102.117188 152.503906 103.324219 161.683594 C 104.53125 170.863281 112.949219 177.324219 122.128906 176.117188 C 131.308594 174.910156 137.769531 166.492188 136.5625 157.3125 C 135.355469 148.132812 126.9375 141.671875 117.757812 142.878906 Z M 117.757812 142.878906 " clip-rule="nonzero"/></clipPath><clipPath id="7f955be7ec"><path d="M 55 150 L 91 150 L 91 185 L 55 185 Z M 55 150 " clip-rule="nonzero"/></clipPath><clipPath id="93c1c6faf0"><path d="M 53.558594 152.851562 L 87.730469 148.359375 L 92.222656 182.53125 L 58.050781 187.023438 Z M 53.558594 152.851562 " clip-rule="nonzero"/></clipPath><clipPath id="1c897c0ec7"><path d="M 70.644531 150.605469 C 61.207031 151.84375 54.5625 160.5 55.804688 169.9375 C 57.042969 179.371094 65.699219 186.015625 75.136719 184.777344 C 84.574219 183.535156 91.214844 174.878906 89.976562 165.445312 C 88.734375 156.007812 80.078125 149.363281 70.644531 150.605469 Z M 70.644531 150.605469 " clip-rule="nonzero"/></clipPath><clipPath id="881dbda7d6"><path d="M 55 152 L 91 152 L 91 174 L 55 174 Z M 55 152 " clip-rule="nonzero"/></clipPath><clipPath id="7c522f6b72"><path d="M 55.921875 173.765625 L 53.546875 154.773438 L 88.496094 150.402344 L 90.871094 169.398438 Z M 55.921875 173.765625 " clip-rule="nonzero"/></clipPath><clipPath id="bfe0935db4"><path d="M 55.921875 173.765625 L 53.546875 154.773438 L 88.496094 150.402344 L 90.871094 169.398438 Z M 55.921875 173.765625 " clip-rule="nonzero"/></clipPath><clipPath id="06b71f8519"><path d="M 55.90625 173.632812 L 53.578125 155.015625 L 88.171875 150.691406 L 90.496094 169.308594 Z M 55.90625 173.632812 " clip-rule="nonzero"/></clipPath><clipPath id="ca8616ce43"><path d="M 103 147 L 138 147 L 138 168 L 103 168 Z M 103 147 " clip-rule="nonzero"/></clipPath><clipPath id="b36b12b15d"><path d="M 103.460938 167.6875 L 101.183594 149.457031 L 135.371094 145.183594 L 137.648438 163.417969 Z M 103.460938 167.6875 " clip-rule="nonzero"/></clipPath><clipPath id="d6f14e87f5"><path d="M 103.460938 167.6875 L 101.183594 149.457031 L 135.371094 145.183594 L 137.648438 163.417969 Z M 103.460938 167.6875 " clip-rule="nonzero"/></clipPath><clipPath id="77754fb85b"><path d="M 103.445312 167.558594 L 101.15625 149.242188 L 135.191406 144.988281 L 137.480469 163.304688 Z M 103.445312 167.558594 " clip-rule="nonzero"/></clipPath><clipPath id="f598cb503b"><path d="M 184.488281 157.699219 L 370.164062 157.699219 L 370.164062 237.949219 L 184.488281 237.949219 Z M 184.488281 157.699219 " clip-rule="nonzero"/></clipPath><clipPath id="2578978ab5"><path d="M 224.609375 157.699219 L 330.019531 157.699219 C 352.175781 157.699219 370.140625 175.660156 370.140625 197.820312 C 370.140625 219.976562 352.175781 237.9375 330.019531 237.9375 L 224.609375 237.9375 C 202.453125 237.9375 184.488281 219.976562 184.488281 197.820312 C 184.488281 175.660156 202.453125 157.699219 224.609375 157.699219 Z M 224.609375 157.699219 " clip-rule="nonzero"/></clipPath><clipPath id="f2daa8a1e3"><path d="M 197.917969 170.441406 L 279.628906 170.441406 L 279.628906 225.203125 L 197.917969 225.203125 Z M 197.917969 170.441406 " clip-rule="nonzero"/></clipPath><clipPath id="9339edd7d4"><path d="M 225.296875 170.441406 L 252.234375 170.441406 C 267.355469 170.441406 279.617188 182.703125 279.617188 197.824219 C 279.617188 212.941406 267.355469 225.203125 252.234375 225.203125 L 225.296875 225.203125 C 210.175781 225.203125 197.917969 212.941406 197.917969 197.824219 C 197.917969 182.703125 210.175781 170.441406 225.296875 170.441406 Z M 225.296875 170.441406 " clip-rule="nonzero"/></clipPath></defs><rect x="-37.5" width="450" fill="#ffffff" y="-37.499999" height="449.999989" fill-opacity="1"/><rect x="-37.5" width="450" fill="#ffffff" y="-37.499999" height="449.999989" fill-opacity="1"/><g clip-path="url(#7dfae78d31)"><g clip-path="url(#cc7d51d79e)"><g clip-path="url(#3e73e6a999)"><path fill="#ffffff" d="M 163.570312 119.207031 C 159.144531 105.074219 151.320312 87.898438 142.65625 78.105469 C 138.761719 73.703125 134.535156 70.601562 130.074219 69.511719 C 124.828125 68.230469 119.769531 69.570312 115.1875 74.453125 C 110.867188 79.054688 106.976562 87.289062 103.871094 100.300781 L 67.941406 105.675781 C 61.164062 94.144531 55.035156 87.414062 49.554688 84.273438 C 43.742188 80.945312 38.519531 81.144531 33.875 83.90625 C 29.933594 86.25 26.792969 90.457031 24.359375 95.804688 C 18.90625 107.796875 16.453125 126.714844 16.394531 141.574219 C 12.621094 150.753906 11.191406 161.023438 12.757812 171.503906 L 13.601562 177.132812 C 17.082031 200.398438 34.390625 218.351562 55.914062 223.875 C 55.855469 228.351562 56.117188 232.679688 56.699219 236.828125 C 58.4375 249.285156 63.03125 259.972656 70.140625 267.902344 C 77.441406 276.042969 87.257812 281.207031 99.238281 282.351562 C 103.449219 282.753906 107.949219 282.648438 112.726562 281.980469 L 112.8125 281.96875 C 117.578125 281.207031 121.910156 279.992188 125.816406 278.375 C 136.9375 273.769531 144.816406 265.960938 149.410156 256.042969 C 153.886719 246.386719 155.15625 234.816406 153.167969 222.394531 C 152.507812 218.265625 151.496094 214.046875 150.128906 209.785156 C 156.476562 205.910156 161.964844 200.84375 166.324219 194.949219 C 175.003906 183.222656 179.226562 168.191406 176.910156 152.703125 L 176.066406 147.074219 C 174.476562 136.445312 170.007812 126.933594 163.570312 119.207031 Z M 123.460938 82.207031 C 124.878906 80.703125 126.199219 80.230469 127.40625 80.527344 C 129.410156 81.015625 131.722656 82.878906 134.160156 85.632812 C 138.414062 90.445312 142.488281 97.480469 145.957031 105.015625 C 143.683594 103.828125 141.324219 102.796875 138.902344 101.917969 C 138.902344 101.917969 138.90625 101.914062 138.90625 101.914062 C 132.746094 89.792969 126.175781 84.4375 121.886719 98.597656 C 119.933594 98.523438 117.96875 98.546875 115.984375 98.679688 C 118.285156 90.28125 120.816406 85.019531 123.460938 82.207031 Z M 34.691406 100.507812 C 36.214844 97.164062 37.878906 94.710938 39.652344 93.652344 C 40.726562 93.015625 42.128906 93.078125 43.917969 94.105469 C 47.265625 96.023438 51.230469 100.3125 55.894531 107.675781 C 54.335938 108.042969 52.804688 108.480469 51.304688 108.972656 C 43.273438 97.140625 38.609375 103.722656 36.238281 116.59375 C 33.675781 118.414062 31.277344 120.4375 29.0625 122.636719 C 30.171875 114.367188 32.019531 106.386719 34.691406 100.507812 Z M 139.121094 251.28125 C 135.726562 258.613281 129.84375 264.410156 121.503906 267.863281 C 118.351562 269.164062 114.878906 270.144531 111.089844 270.753906 C 107.289062 271.28125 103.683594 271.363281 100.289062 271.035156 C 91.304688 270.175781 83.980469 266.355469 78.589844 260.339844 C 73.003906 254.113281 69.359375 245.476562 67.933594 235.234375 C 67.503906 232.160156 67.277344 228.933594 67.265625 225.578125 C 70.902344 225.753906 74.609375 225.574219 78.339844 225.015625 L 99.386719 221.867188 L 100.835938 231.5625 C 98.585938 232.652344 96.664062 234.273438 95.210938 236.234375 C 92.882812 239.382812 91.753906 243.425781 92.378906 247.601562 C 93.003906 251.78125 95.261719 255.3125 98.414062 257.640625 C 101.566406 259.972656 105.605469 261.101562 109.78125 260.476562 C 113.960938 259.851562 117.492188 257.59375 119.824219 254.4375 C 122.152344 251.289062 123.28125 247.25 122.65625 243.070312 C 122.03125 238.894531 119.769531 235.363281 116.621094 233.03125 C 114.65625 231.582031 112.34375 230.59375 109.871094 230.210938 L 108.421875 220.515625 L 129.015625 217.433594 C 132.75 216.875 136.34375 215.960938 139.773438 214.730469 C 140.742188 217.941406 141.46875 221.089844 141.960938 224.152344 C 143.597656 234.363281 142.636719 243.6875 139.121094 251.28125 Z M 105.925781 234.710938 C 108.863281 234.269531 111.699219 235.0625 113.914062 236.703125 C 116.125 238.339844 117.710938 240.820312 118.152344 243.753906 C 118.589844 246.691406 117.796875 249.527344 116.164062 251.742188 C 114.527344 253.957031 112.046875 255.542969 109.109375 255.984375 C 106.175781 256.421875 103.339844 255.628906 101.125 253.992188 C 98.910156 252.359375 97.328125 249.871094 96.886719 246.9375 C 96.449219 244.003906 97.242188 241.167969 98.875 238.953125 C 100.511719 236.738281 102.992188 235.148438 105.925781 234.710938 Z M 165.648438 154.382812 C 167.5 166.765625 164.113281 178.785156 157.167969 188.179688 C 150.222656 197.570312 139.722656 204.320312 127.335938 206.175781 L 76.65625 213.757812 C 51.878906 217.464844 28.570312 200.226562 24.863281 175.449219 L 24.019531 169.816406 C 22.167969 157.4375 25.554688 145.414062 32.496094 136.023438 C 39.445312 126.636719 49.949219 119.878906 62.332031 118.027344 L 113.011719 110.441406 C 137.789062 106.734375 161.097656 123.976562 164.804688 148.753906 Z M 145.980469 152.339844 L 146.597656 156.457031 C 147.953125 165.507812 145.480469 174.292969 140.402344 181.15625 C 135.324219 188.019531 127.644531 192.957031 118.597656 194.3125 L 81.546875 199.855469 C 63.4375 202.566406 46.398438 189.960938 43.6875 171.847656 L 43.074219 167.734375 C 41.71875 158.679688 44.191406 149.894531 49.269531 143.035156 C 54.347656 136.167969 62.023438 131.234375 71.078125 129.878906 L 108.128906 124.335938 C 126.234375 121.628906 143.273438 134.234375 145.980469 152.339844 Z M 145.980469 152.339844 " fill-opacity="1" fill-rule="evenodd"/></g></g></g><g clip-path="url(#dfbe976a13)"><g clip-path="url(#8ae17e8a96)"><g clip-path="url(#00dbee01c1)"><path fill="#1ae5be" d="M 113.914062 236.695312 C 116.121094 238.335938 117.710938 240.816406 118.148438 243.75 C 118.589844 246.6875 117.796875 249.523438 116.164062 251.734375 C 114.523438 253.949219 112.042969 255.539062 109.109375 255.976562 C 106.175781 256.417969 103.339844 255.625 101.125 253.988281 C 98.910156 252.351562 97.324219 249.867188 96.886719 246.933594 C 96.449219 243.996094 97.238281 241.160156 98.875 238.945312 C 100.507812 236.734375 102.992188 235.144531 105.925781 234.707031 C 108.867188 234.269531 111.703125 235.0625 113.914062 236.695312 Z M 75.320312 155.449219 C 73.328125 154.785156 71.261719 154.660156 69.277344 155 C 67.296875 155.339844 65.410156 156.144531 63.753906 157.355469 C 60.039062 160.074219 57.484375 164.804688 57.839844 170.820312 C 57.878906 171.421875 58.140625 171.929688 58.609375 172.304688 C 59.082031 172.679688 59.636719 172.820312 60.230469 172.722656 L 60.671875 172.648438 C 61.703125 172.472656 62.433594 171.558594 62.375 170.515625 C 62.140625 166.199219 63.882812 162.878906 66.421875 161.023438 C 67.515625 160.226562 68.75 159.691406 70.03125 159.472656 C 71.300781 159.253906 72.621094 159.335938 73.898438 159.757812 C 77.003906 160.792969 79.871094 163.882812 81.253906 169.617188 C 81.5 170.664062 82.515625 171.339844 83.578125 171.160156 L 84.007812 171.089844 C 84.589844 170.992188 85.054688 170.695312 85.382812 170.199219 C 85.707031 169.707031 85.804688 169.164062 85.667969 168.589844 C 83.871094 161.089844 79.800781 156.941406 75.320312 155.449219 Z M 123.730469 148.386719 C 121.792969 147.714844 119.746094 147.5 117.757812 147.75 C 115.757812 148.007812 113.820312 148.730469 112.109375 149.949219 C 108.261719 152.6875 105.585938 157.847656 106.0625 165.546875 C 106.097656 166.136719 106.351562 166.628906 106.808594 167.003906 C 107.265625 167.382812 107.796875 167.53125 108.382812 167.453125 L 108.8125 167.394531 C 109.882812 167.253906 110.652344 166.3125 110.585938 165.238281 C 110.230469 159.355469 112.066406 155.558594 114.734375 153.660156 C 115.828125 152.878906 117.070312 152.414062 118.34375 152.253906 C 119.636719 152.089844 120.972656 152.238281 122.25 152.679688 C 125.226562 153.710938 127.867188 156.375 128.898438 160.570312 C 129.148438 161.589844 130.113281 162.246094 131.152344 162.109375 L 131.59375 162.054688 C 132.195312 161.976562 132.679688 161.683594 133.019531 161.183594 C 133.359375 160.6875 133.464844 160.121094 133.320312 159.539062 C 131.90625 153.671875 128.074219 149.894531 123.730469 148.386719 Z M 123.730469 148.386719 " fill-opacity="1" fill-rule="nonzero"/></g></g></g><g clip-path="url(#ff92d2844f)"><g clip-path="url(#b42e4ed92e)"><path fill="#ffffff" d="M 92.828125 231.695312 L 120.566406 231.695312 L 120.566406 259.433594 L 92.828125 259.433594 Z M 92.828125 231.695312 " fill-opacity="1" fill-rule="nonzero"/></g></g><g clip-path="url(#ab56b47f69)"><g clip-path="url(#7f63c7148d)"><g clip-path="url(#629fd6eb66)"><path fill="#ffffff" d="M 101.136719 145.0625 L 134.378906 140.691406 L 138.746094 173.933594 L 105.507812 178.300781 Z M 101.136719 145.0625 " fill-opacity="1" fill-rule="nonzero"/></g></g></g><g clip-path="url(#7f955be7ec)"><g clip-path="url(#93c1c6faf0)"><g clip-path="url(#1c897c0ec7)"><path fill="#ffffff" d="M 53.558594 152.851562 L 87.730469 148.359375 L 92.222656 182.53125 L 58.050781 187.023438 Z M 53.558594 152.851562 " fill-opacity="1" fill-rule="nonzero"/></g></g></g><g clip-path="url(#881dbda7d6)"><g clip-path="url(#7c522f6b72)"><g clip-path="url(#bfe0935db4)"><g clip-path="url(#06b71f8519)"><path fill="#283389" d="M 56.023438 170.640625 C 55.445312 171.410156 55.601562 172.503906 56.371094 173.082031 C 57.121094 173.644531 58.1875 173.511719 58.777344 172.78125 L 71.34375 156.621094 L 87.503906 169.191406 C 88.273438 169.769531 89.367188 169.613281 89.941406 168.84375 C 90.507812 168.089844 90.378906 167.027344 89.644531 166.4375 L 72.894531 153.410156 C 71.699219 152.480469 69.980469 152.695312 69.050781 153.890625 L 56.023438 170.640625 " fill-opacity="1" fill-rule="nonzero"/></g></g></g></g><g clip-path="url(#ca8616ce43)"><g clip-path="url(#b36b12b15d)"><g clip-path="url(#d6f14e87f5)"><g clip-path="url(#77754fb85b)"><path fill="#283389" d="M 103.5625 164.613281 C 102.992188 165.375 103.148438 166.449219 103.90625 167.019531 C 104.644531 167.574219 105.691406 167.441406 106.269531 166.722656 L 118.636719 150.824219 L 134.535156 163.191406 C 135.292969 163.757812 136.367188 163.605469 136.933594 162.847656 C 137.488281 162.109375 137.363281 161.0625 136.640625 160.480469 L 120.164062 147.664062 C 118.984375 146.75 117.292969 146.960938 116.378906 148.136719 L 103.5625 164.613281 " fill-opacity="1" fill-rule="nonzero"/></g></g></g></g><g clip-path="url(#f598cb503b)"><g clip-path="url(#2578978ab5)"><path stroke-linecap="butt" transform="matrix(0.75, 0, 0, 0.75, 184.490104, 157.700044)" fill="none" stroke-linejoin="miter" d="M 53.492361 -0.00110039 L 194.039236 -0.00110039 C 223.580903 -0.00110039 247.534028 23.946816 247.534028 53.493691 C 247.534028 83.035358 223.580903 106.983275 194.039236 106.983275 L 53.492361 106.983275 C 23.950694 106.983275 -0.00243085 83.035358 -0.00243085 53.493691 C -0.00243085 23.946816 23.950694 -0.00110039 53.492361 -0.00110039 Z M 53.492361 -0.00110039 " stroke="#ffffff" stroke-width="18" stroke-opacity="1" stroke-miterlimit="4"/></g></g><g clip-path="url(#f2daa8a1e3)"><g clip-path="url(#9339edd7d4)"><path fill="#ffffff" d="M 197.917969 170.441406 L 279.628906 170.441406 L 279.628906 225.203125 L 197.917969 225.203125 Z M 197.917969 170.441406 " fill-opacity="1" fill-rule="nonzero"/></g></g><g fill="#283389" fill-opacity="1"><g transform="translate(211.511924, 212.837276)"><g><path d="M 0.234375 0 L 12.78125 -32.3125 L 22.015625 -32.3125 L 34.578125 0 L 24.640625 0 L 22.890625 -4.5625 L 11.859375 -4.5625 L 10.109375 0 Z M 13.796875 -11.40625 L 21 -11.40625 L 17.40625 -21.421875 Z M 13.796875 -11.40625 "/></g></g></g><g fill="#283389" fill-opacity="1"><g transform="translate(249.821394, 212.837276)"><g><path d="M 3.421875 0 L 3.421875 -32.3125 L 12.734375 -32.3125 L 12.734375 0 Z M 3.421875 0 "/></g></g></g><g fill="#ffffff" fill-opacity="1"><g transform="translate(279.079386, 214.646854)"><g><path d="M 3.65625 0 L 3.65625 -34.578125 L 19.40625 -34.578125 C 22.207031 -34.578125 24.617188 -34.070312 26.640625 -33.0625 C 28.671875 -32.0625 30.238281 -30.640625 31.34375 -28.796875 C 32.445312 -26.953125 33 -24.742188 33 -22.171875 C 33 -19.773438 32.503906 -17.675781 31.515625 -15.875 C 30.523438 -14.082031 29.109375 -12.675781 27.265625 -11.65625 L 33.640625 0 L 22.328125 0 L 17.390625 -9.828125 L 13.625 -9.828125 L 13.625 0 Z M 13.4375 -17.78125 L 18.078125 -17.78125 C 19.660156 -17.78125 20.867188 -18.15625 21.703125 -18.90625 C 22.546875 -19.664062 22.96875 -20.738281 22.96875 -22.125 C 22.96875 -23.507812 22.546875 -24.570312 21.703125 -25.3125 C 20.867188 -26.050781 19.660156 -26.421875 18.078125 -26.421875 L 13.4375 -26.421875 Z M 13.4375 -17.78125 "/></g></g></g><g fill="#ffffff" fill-opacity="1"><g transform="translate(314.63321, 214.646854)"><g><path d="M 0.25 0 L 13.6875 -34.578125 L 23.5625 -34.578125 L 37 0 L 26.375 0 L 24.5 -4.890625 L 12.6875 -4.890625 L 10.8125 0 Z M 14.765625 -12.203125 L 22.46875 -12.203125 L 18.625 -22.921875 Z M 14.765625 -12.203125 "/></g></g></g></svg>