<svg xmlns="http://www.w3.org/2000/svg" xmlns:xlink="http://www.w3.org/1999/xlink" width="500" zoomAndPan="magnify" viewBox="0 0 375 374.999991" height="500" preserveAspectRatio="xMidYMid meet" version="1.0"><defs><g/><clipPath id="90f313a2f7"><path d="M 184.566406 148.21875 L 268.542969 148.21875 L 268.542969 204.496094 L 184.566406 204.496094 Z M 184.566406 148.21875 " clip-rule="nonzero"/></clipPath><clipPath id="dc47496fd6"><path d="M 212.703125 148.21875 L 240.390625 148.21875 C 255.933594 148.21875 268.53125 160.816406 268.53125 176.359375 C 268.53125 191.898438 255.933594 204.496094 240.390625 204.496094 L 212.703125 204.496094 C 197.164062 204.496094 184.566406 191.898438 184.566406 176.359375 C 184.566406 160.816406 197.164062 148.21875 212.703125 148.21875 Z M 212.703125 148.21875 " clip-rule="nonzero"/></clipPath><clipPath id="5b2848d00c"><path d="M 170.761719 135.121094 L 361.542969 135.121094 L 361.542969 217.386719 L 170.761719 217.386719 Z M 170.761719 135.121094 " clip-rule="nonzero"/></clipPath><clipPath id="55af0288d9"><path d="M 211.996094 135.121094 L 320.335938 135.121094 C 343.109375 135.121094 361.570312 153.582031 361.570312 176.355469 C 361.570312 199.128906 343.109375 217.589844 320.335938 217.589844 L 211.996094 217.589844 C 189.222656 217.589844 170.761719 199.128906 170.761719 176.355469 C 170.761719 153.582031 189.222656 135.121094 211.996094 135.121094 Z M 211.996094 135.121094 " clip-rule="nonzero"/></clipPath><clipPath id="ef8a2fd7bd"><path d="M 8 41 L 171 41 L 171 251 L 8 251 Z M 8 41 " clip-rule="nonzero"/></clipPath><clipPath id="6579149db8"><path d="M -3.035156 58.605469 L 157.179688 34.632812 L 187.589844 237.871094 L 27.371094 261.84375 Z M -3.035156 58.605469 " clip-rule="nonzero"/></clipPath><clipPath id="810a48f37a"><path d="M -3.035156 58.605469 L 157.179688 34.632812 L 187.589844 237.871094 L 27.371094 261.84375 Z M -3.035156 58.605469 " clip-rule="nonzero"/></clipPath><clipPath id="85a5d5733e"><path d="M 53 118 L 128 118 L 128 225 L 53 225 Z M 53 118 " clip-rule="nonzero"/></clipPath><clipPath id="dc214e81e1"><path d="M -3.035156 58.605469 L 157.179688 34.632812 L 187.589844 237.871094 L 27.371094 261.84375 Z M -3.035156 58.605469 " clip-rule="nonzero"/></clipPath><clipPath id="40602212e7"><path d="M -3.035156 58.605469 L 157.179688 34.632812 L 187.589844 237.871094 L 27.371094 261.84375 Z M -3.035156 58.605469 " clip-rule="nonzero"/></clipPath><clipPath id="a23c287afd"><path d="M 87.894531 200.449219 L 115.066406 200.449219 L 115.066406 227.621094 L 87.894531 227.621094 Z M 87.894531 200.449219 " clip-rule="nonzero"/></clipPath><clipPath id="03bc2dbdbf"><path d="M 101.480469 200.449219 C 93.976562 200.449219 87.894531 206.53125 87.894531 214.035156 C 87.894531 221.539062 93.976562 227.621094 101.480469 227.621094 C 108.984375 227.621094 115.066406 221.539062 115.066406 214.035156 C 115.066406 206.53125 108.984375 200.449219 101.480469 200.449219 Z M 101.480469 200.449219 " clip-rule="nonzero"/></clipPath><clipPath id="5d9d572204"><path d="M 98 113 L 131 113 L 131 147 L 98 147 Z M 98 113 " clip-rule="nonzero"/></clipPath><clipPath id="80ab189040"><path d="M 96.03125 115.589844 L 128.59375 111.308594 L 132.875 143.867188 L 100.3125 148.148438 Z M 96.03125 115.589844 " clip-rule="nonzero"/></clipPath><clipPath id="df96b46caa"><path d="M 112.3125 113.449219 C 103.320312 114.632812 96.992188 122.878906 98.171875 131.867188 C 99.355469 140.859375 107.601562 147.191406 116.59375 146.007812 C 125.585938 144.828125 131.914062 136.578125 130.734375 127.589844 C 129.550781 118.597656 121.304688 112.265625 112.3125 113.449219 Z M 112.3125 113.449219 " clip-rule="nonzero"/></clipPath><clipPath id="8fe0ac0d2d"><path d="M 51 120 L 86 120 L 86 155 L 51 155 Z M 51 120 " clip-rule="nonzero"/></clipPath><clipPath id="6b3b858ead"><path d="M 49.425781 123.21875 L 82.898438 118.816406 L 87.300781 152.289062 L 53.828125 156.691406 Z M 49.425781 123.21875 " clip-rule="nonzero"/></clipPath><clipPath id="034bb8b74b"><path d="M 66.160156 121.015625 C 56.917969 122.234375 50.410156 130.710938 51.625 139.953125 C 52.839844 149.199219 61.320312 155.707031 70.5625 154.492188 C 79.804688 153.273438 86.3125 144.796875 85.097656 135.554688 C 83.882812 126.308594 75.40625 119.800781 66.160156 121.015625 Z M 66.160156 121.015625 " clip-rule="nonzero"/></clipPath><clipPath id="8c74f0a16c"><path d="M 51 123 L 86 123 L 86 144 L 51 144 Z M 51 123 " clip-rule="nonzero"/></clipPath><clipPath id="7ed3164c0e"><path d="M 51.742188 143.703125 L 49.414062 125.101562 L 83.648438 120.820312 L 85.972656 139.425781 Z M 51.742188 143.703125 " clip-rule="nonzero"/></clipPath><clipPath id="85b987bd96"><path d="M 51.742188 143.703125 L 49.414062 125.101562 L 83.648438 120.820312 L 85.972656 139.425781 Z M 51.742188 143.703125 " clip-rule="nonzero"/></clipPath><clipPath id="cffc0104e6"><path d="M 51.722656 143.574219 L 49.445312 125.339844 L 83.332031 121.105469 L 85.609375 139.339844 Z M 51.722656 143.574219 " clip-rule="nonzero"/></clipPath><clipPath id="2de1bd3b50"><path d="M 98 117 L 132 117 L 132 138 L 98 138 Z M 98 117 " clip-rule="nonzero"/></clipPath><clipPath id="2e187181be"><path d="M 98.308594 137.753906 L 96.078125 119.890625 L 129.566406 115.707031 L 131.796875 133.566406 Z M 98.308594 137.753906 " clip-rule="nonzero"/></clipPath><clipPath id="262dacb1d9"><path d="M 98.308594 137.753906 L 96.078125 119.890625 L 129.566406 115.707031 L 131.796875 133.566406 Z M 98.308594 137.753906 " clip-rule="nonzero"/></clipPath><clipPath id="664dbbd9ed"><path d="M 98.292969 137.625 L 96.050781 119.683594 L 129.386719 115.519531 L 131.632812 133.460938 Z M 98.292969 137.625 " clip-rule="nonzero"/></clipPath></defs><g clip-path="url(#90f313a2f7)"><g clip-path="url(#dc47496fd6)"><path fill="#6e33e4" d="M 184.566406 148.21875 L 268.542969 148.21875 L 268.542969 204.496094 L 184.566406 204.496094 Z M 184.566406 148.21875 " fill-opacity="1" fill-rule="nonzero"/></g></g><g clip-path="url(#5b2848d00c)"><g clip-path="url(#55af0288d9)"><path stroke-linecap="butt" transform="matrix(0.875151, 0, 0, 0.875151, 170.760286, 135.122554)" fill="none" stroke-linejoin="miter" d="M 47.118519 -0.00166894 L 170.914155 -0.00166894 C 196.936458 -0.00166894 218.031038 21.092911 218.031038 47.115213 C 218.031038 73.137516 196.936458 94.232096 170.914155 94.232096 L 47.118519 94.232096 C 21.096217 94.232096 0.00163705 73.137516 0.00163705 47.115213 C 0.00163705 21.092911 21.096217 -0.00166894 47.118519 -0.00166894 Z M 47.118519 -0.00166894 " stroke="#6e33e4" stroke-width="15.425913" stroke-opacity="1" stroke-miterlimit="4"/></g></g><g fill="#f170e1" fill-opacity="1"><g transform="translate(198.537318, 191.789123)"><g><path d="M 0.234375 0 L 13.140625 -33.203125 L 22.625 -33.203125 L 35.53125 0 L 25.328125 0 L 23.53125 -4.703125 L 12.1875 -4.703125 L 10.390625 0 Z M 14.1875 -11.71875 L 21.578125 -11.71875 L 17.890625 -22.015625 Z M 14.1875 -11.71875 "/></g></g></g><g fill="#f170e1" fill-opacity="1"><g transform="translate(237.909498, 191.789123)"><g><path d="M 3.515625 0 L 3.515625 -33.203125 L 13.09375 -33.203125 L 13.09375 0 Z M 3.515625 0 "/></g></g></g><g fill="#6e33e4" fill-opacity="1"><g transform="translate(267.979124, 193.648904)"><g><path d="M 3.75 0 L 3.75 -35.53125 L 19.9375 -35.53125 C 22.820312 -35.53125 25.300781 -35.007812 27.375 -33.96875 C 29.457031 -32.9375 31.066406 -31.472656 32.203125 -29.578125 C 33.335938 -27.691406 33.90625 -25.425781 33.90625 -22.78125 C 33.90625 -20.3125 33.394531 -18.15625 32.375 -16.3125 C 31.363281 -14.46875 29.910156 -13.023438 28.015625 -11.984375 L 34.5625 0 L 22.9375 0 L 17.859375 -10.09375 L 14 -10.09375 L 14 0 Z M 13.796875 -18.265625 L 18.578125 -18.265625 C 20.203125 -18.265625 21.441406 -18.65625 22.296875 -19.4375 C 23.160156 -20.21875 23.59375 -21.316406 23.59375 -22.734375 C 23.59375 -24.160156 23.160156 -25.253906 22.296875 -26.015625 C 21.441406 -26.773438 20.203125 -27.15625 18.578125 -27.15625 L 13.796875 -27.15625 Z M 13.796875 -18.265625 "/></g></g></g><g fill="#6e33e4" fill-opacity="1"><g transform="translate(304.519215, 193.648904)"><g><path d="M 0.25 0 L 14.0625 -35.53125 L 24.203125 -35.53125 L 38.015625 0 L 27.09375 0 L 25.171875 -5.03125 L 13.046875 -5.03125 L 11.109375 0 Z M 15.171875 -12.53125 L 23.09375 -12.53125 L 19.125 -23.546875 Z M 15.171875 -12.53125 "/></g></g></g><g clip-path="url(#ef8a2fd7bd)"><g clip-path="url(#6579149db8)"><g clip-path="url(#810a48f37a)"><path fill="#ffffff" d="M 157.1875 90.261719 C 152.851562 76.417969 145.1875 59.59375 136.703125 50 C 132.886719 45.6875 128.746094 42.648438 124.378906 41.585938 C 119.238281 40.328125 114.285156 41.640625 109.796875 46.421875 C 105.5625 50.929688 101.753906 58.996094 98.710938 71.742188 L 63.515625 77.007812 C 56.875 65.710938 50.871094 59.117188 45.503906 56.042969 C 39.8125 52.78125 34.695312 52.976562 30.144531 55.683594 C 26.285156 57.980469 23.210938 62.097656 20.824219 67.339844 C 15.480469 79.085938 13.078125 97.613281 13.019531 112.171875 C 9.324219 121.164062 7.925781 131.222656 9.460938 141.488281 L 10.285156 147.003906 C 13.695312 169.792969 30.652344 187.378906 51.734375 192.789062 C 51.679688 197.175781 51.933594 201.414062 52.503906 205.476562 C 54.203125 217.679688 58.707031 228.152344 65.671875 235.917969 C 72.820312 243.890625 82.4375 248.949219 94.171875 250.070312 C 98.296875 250.464844 102.703125 250.359375 107.382812 249.707031 L 107.46875 249.695312 C 112.136719 248.949219 116.378906 247.757812 120.207031 246.175781 C 131.101562 241.664062 138.816406 234.015625 143.320312 224.300781 C 147.703125 214.839844 148.945312 203.507812 147 191.335938 C 146.351562 187.292969 145.359375 183.160156 144.023438 178.984375 C 150.238281 175.191406 155.613281 170.230469 159.886719 164.457031 C 168.390625 152.96875 172.527344 138.246094 170.253906 123.074219 L 169.429688 117.558594 C 167.871094 107.148438 163.496094 97.832031 157.1875 90.261719 Z M 117.898438 54.019531 C 119.285156 52.542969 120.582031 52.082031 121.765625 52.375 C 123.726562 52.851562 125.992188 54.675781 128.378906 57.375 C 132.542969 62.089844 136.539062 68.976562 139.9375 76.359375 C 137.710938 75.199219 135.398438 74.183594 133.023438 73.324219 C 133.023438 73.324219 133.027344 73.324219 133.027344 73.324219 C 126.996094 61.449219 120.558594 56.203125 116.355469 70.074219 C 114.445312 70 112.519531 70.023438 110.574219 70.152344 C 112.828125 61.925781 115.308594 56.773438 117.898438 54.019531 Z M 30.945312 71.945312 C 32.4375 68.667969 34.070312 66.265625 35.804688 65.230469 C 36.855469 64.605469 38.230469 64.667969 39.984375 65.671875 C 43.261719 67.550781 47.144531 71.753906 51.714844 78.964844 C 50.1875 79.328125 48.6875 79.753906 47.21875 80.234375 C 39.351562 68.644531 34.78125 75.09375 32.460938 87.699219 C 29.949219 89.484375 27.597656 91.46875 25.433594 93.621094 C 26.519531 85.519531 28.324219 77.707031 30.945312 71.945312 Z M 133.238281 219.636719 C 129.914062 226.816406 124.152344 232.496094 115.980469 235.878906 C 112.894531 237.152344 109.492188 238.113281 105.78125 238.710938 C 102.058594 239.226562 98.527344 239.308594 95.199219 238.988281 C 86.398438 238.144531 79.226562 234.402344 73.945312 228.507812 C 68.476562 222.410156 64.902344 213.949219 63.507812 203.917969 C 63.085938 200.90625 62.867188 197.746094 62.851562 194.457031 C 66.417969 194.628906 70.046875 194.453125 73.699219 193.90625 L 94.316406 190.824219 L 95.738281 200.320312 C 93.535156 201.386719 91.648438 202.976562 90.230469 204.898438 C 87.945312 207.980469 86.839844 211.9375 87.453125 216.03125 C 88.0625 220.125 90.277344 223.585938 93.367188 225.867188 C 96.449219 228.148438 100.40625 229.253906 104.5 228.644531 C 108.59375 228.03125 112.054688 225.816406 114.335938 222.730469 C 116.617188 219.644531 117.722656 215.6875 117.113281 211.59375 C 116.5 207.5 114.28125 204.042969 111.199219 201.757812 C 109.277344 200.339844 107.011719 199.371094 104.589844 198.996094 L 103.167969 189.5 L 123.339844 186.480469 C 127 185.933594 130.515625 185.039062 133.878906 183.832031 C 134.828125 186.976562 135.539062 190.058594 136.023438 193.0625 C 137.625 203.0625 136.683594 212.199219 133.238281 219.636719 Z M 100.722656 203.402344 C 103.597656 202.972656 106.378906 203.75 108.546875 205.355469 C 110.710938 206.960938 112.265625 209.390625 112.699219 212.265625 C 113.128906 215.140625 112.351562 217.917969 110.75 220.085938 C 109.148438 222.253906 106.71875 223.8125 103.84375 224.242188 C 100.96875 224.671875 98.1875 223.894531 96.019531 222.289062 C 93.851562 220.691406 92.300781 218.253906 91.867188 215.378906 C 91.4375 212.503906 92.214844 209.726562 93.816406 207.558594 C 95.421875 205.390625 97.847656 203.832031 100.722656 203.402344 Z M 159.222656 124.71875 C 161.039062 136.847656 157.71875 148.625 150.917969 157.824219 C 144.113281 167.023438 133.828125 173.636719 121.695312 175.453125 L 72.050781 182.878906 C 47.78125 186.511719 24.949219 169.625 21.316406 145.351562 L 20.492188 139.835938 C 18.679688 127.707031 21.996094 115.933594 28.796875 106.734375 C 35.601562 97.539062 45.890625 90.917969 58.019531 89.105469 L 107.664062 81.675781 C 131.933594 78.046875 154.765625 94.933594 158.398438 119.203125 Z M 139.960938 122.71875 L 140.5625 126.75 C 141.890625 135.613281 139.46875 144.222656 134.492188 150.945312 C 129.519531 157.667969 122 162.503906 113.136719 163.832031 L 76.84375 169.261719 C 59.101562 171.914062 42.414062 159.570312 39.757812 141.828125 L 39.15625 137.796875 C 37.828125 128.925781 40.25 120.320312 45.226562 113.601562 C 50.199219 106.878906 57.71875 102.042969 66.589844 100.714844 L 102.878906 95.285156 C 120.617188 92.636719 137.304688 104.980469 139.960938 122.71875 Z M 139.960938 122.71875 " fill-opacity="1" fill-rule="evenodd"/></g></g></g><g clip-path="url(#85a5d5733e)"><g clip-path="url(#dc214e81e1)"><g clip-path="url(#40602212e7)"><path fill="#1ae5be" d="M 108.546875 205.351562 C 110.710938 206.957031 112.265625 209.382812 112.695312 212.257812 C 113.128906 215.132812 112.351562 217.914062 110.75 220.082031 C 109.144531 222.25 106.714844 223.804688 103.839844 224.238281 C 100.964844 224.667969 98.1875 223.890625 96.019531 222.285156 C 93.851562 220.683594 92.296875 218.25 91.867188 215.375 C 91.4375 212.5 92.214844 209.722656 93.816406 207.554688 C 95.414062 205.386719 97.847656 203.828125 100.722656 203.398438 C 103.605469 202.972656 106.382812 203.75 108.546875 205.351562 Z M 70.742188 125.765625 C 68.792969 125.113281 66.769531 124.988281 64.820312 125.324219 C 62.886719 125.65625 61.035156 126.445312 59.414062 127.632812 C 55.773438 130.292969 53.269531 134.929688 53.621094 140.820312 C 53.65625 141.410156 53.914062 141.90625 54.375 142.273438 C 54.835938 142.640625 55.378906 142.78125 55.964844 142.683594 L 56.390625 142.609375 C 57.40625 142.4375 58.117188 141.542969 58.0625 140.519531 C 57.832031 136.292969 59.539062 133.042969 62.027344 131.222656 C 63.097656 130.441406 64.308594 129.921875 65.5625 129.703125 C 66.804688 129.488281 68.101562 129.570312 69.347656 129.984375 C 72.394531 131 75.203125 134.027344 76.554688 139.640625 C 76.796875 140.667969 77.792969 141.328125 78.832031 141.152344 L 79.253906 141.085938 C 79.824219 140.988281 80.277344 140.695312 80.597656 140.214844 C 80.917969 139.730469 81.011719 139.199219 80.878906 138.632812 C 79.121094 131.289062 75.132812 127.222656 70.742188 125.765625 Z M 118.164062 118.847656 C 116.265625 118.1875 114.257812 117.976562 112.316406 118.222656 C 110.355469 118.472656 108.457031 119.183594 106.78125 120.378906 C 103.011719 123.058594 100.390625 128.113281 100.855469 135.65625 C 100.890625 136.234375 101.140625 136.714844 101.585938 137.082031 C 102.035156 137.449219 102.554688 137.597656 103.128906 137.523438 L 103.550781 137.464844 C 104.597656 137.324219 105.355469 136.402344 105.289062 135.351562 C 104.9375 129.589844 106.738281 125.871094 109.351562 124.007812 C 110.421875 123.246094 111.636719 122.789062 112.886719 122.632812 C 114.152344 122.472656 115.460938 122.617188 116.714844 123.050781 C 119.628906 124.0625 122.214844 126.671875 123.226562 130.78125 C 123.472656 131.777344 124.417969 132.421875 125.433594 132.289062 L 125.867188 132.234375 C 126.453125 132.15625 126.929688 131.867188 127.261719 131.378906 C 127.597656 130.894531 127.699219 130.339844 127.558594 129.769531 C 126.171875 124.019531 122.417969 120.320312 118.164062 118.847656 Z M 118.164062 118.847656 " fill-opacity="1" fill-rule="nonzero"/></g></g></g><g clip-path="url(#a23c287afd)"><g clip-path="url(#03bc2dbdbf)"><path fill="#ffffff" d="M 87.894531 200.449219 L 115.066406 200.449219 L 115.066406 227.621094 L 87.894531 227.621094 Z M 87.894531 200.449219 " fill-opacity="1" fill-rule="nonzero"/></g></g><g clip-path="url(#5d9d572204)"><g clip-path="url(#80ab189040)"><g clip-path="url(#df96b46caa)"><path fill="#ffffff" d="M 96.03125 115.589844 L 128.59375 111.308594 L 132.875 143.867188 L 100.3125 148.148438 Z M 96.03125 115.589844 " fill-opacity="1" fill-rule="nonzero"/></g></g></g><g clip-path="url(#8fe0ac0d2d)"><g clip-path="url(#6b3b858ead)"><g clip-path="url(#034bb8b74b)"><path fill="#ffffff" d="M 49.425781 123.21875 L 82.898438 118.816406 L 87.300781 152.289062 L 53.828125 156.691406 Z M 49.425781 123.21875 " fill-opacity="1" fill-rule="nonzero"/></g></g></g><g clip-path="url(#8c74f0a16c)"><g clip-path="url(#7ed3164c0e)"><g clip-path="url(#85b987bd96)"><g clip-path="url(#cffc0104e6)"><path fill="#283389" d="M 51.839844 140.640625 C 51.273438 141.398438 51.425781 142.46875 52.183594 143.035156 C 52.917969 143.585938 53.960938 143.457031 54.539062 142.738281 L 66.847656 126.914062 L 82.675781 139.222656 C 83.433594 139.789062 84.503906 139.636719 85.066406 138.882812 C 85.621094 138.148438 85.492188 137.105469 84.773438 136.527344 L 68.367188 123.765625 C 67.199219 122.855469 65.511719 123.066406 64.601562 124.234375 L 51.839844 140.640625 " fill-opacity="1" fill-rule="nonzero"/></g></g></g></g><g clip-path="url(#2de1bd3b50)"><g clip-path="url(#2e187181be)"><g clip-path="url(#262dacb1d9)"><g clip-path="url(#664dbbd9ed)"><path fill="#283389" d="M 98.40625 134.742188 C 97.851562 135.484375 98 136.539062 98.742188 137.09375 C 99.464844 137.640625 100.492188 137.511719 101.0625 136.804688 L 113.171875 121.234375 L 128.746094 133.34375 C 129.488281 133.902344 130.542969 133.753906 131.097656 133.007812 C 131.640625 132.285156 131.515625 131.261719 130.808594 130.691406 L 114.667969 118.136719 C 113.515625 117.238281 111.859375 117.449219 110.960938 118.597656 L 98.40625 134.742188 " fill-opacity="1" fill-rule="nonzero"/></g></g></g></g><g fill="#6e33e4" fill-opacity="1"><g transform="translate(8.870246, 285.497823)"><g><path d="M 6.6875 -10.171875 C 5.71875 -10.171875 4.96875 -9.804688 4.4375 -9.078125 C 3.90625 -8.347656 3.640625 -7.332031 3.640625 -6.03125 C 3.640625 -3.320312 4.65625 -1.96875 6.6875 -1.96875 C 7.53125 -1.96875 8.5625 -2.179688 9.78125 -2.609375 L 9.78125 -0.453125 C 8.78125 -0.0351562 7.664062 0.171875 6.4375 0.171875 C 4.675781 0.171875 3.328125 -0.363281 2.390625 -1.4375 C 1.453125 -2.507812 0.984375 -4.046875 0.984375 -6.046875 C 0.984375 -7.304688 1.210938 -8.410156 1.671875 -9.359375 C 2.128906 -10.316406 2.789062 -11.046875 3.65625 -11.546875 C 4.519531 -12.054688 5.53125 -12.3125 6.6875 -12.3125 C 7.863281 -12.3125 9.046875 -12.023438 10.234375 -11.453125 L 9.40625 -9.359375 C 8.945312 -9.578125 8.488281 -9.765625 8.03125 -9.921875 C 7.570312 -10.085938 7.125 -10.171875 6.6875 -10.171875 Z M 6.6875 -10.171875 "/></g></g></g><g fill="#6e33e4" fill-opacity="1"><g transform="translate(21.12577, 285.497823)"><g><path d="M 12.546875 -6.078125 C 12.546875 -4.078125 12.046875 -2.535156 11.046875 -1.453125 C 10.046875 -0.367188 8.617188 0.171875 6.765625 0.171875 C 4.898438 0.171875 3.46875 -0.367188 2.46875 -1.453125 C 1.476562 -2.535156 0.984375 -4.082031 0.984375 -6.09375 C 0.984375 -8.113281 1.484375 -9.65625 2.484375 -10.71875 C 3.484375 -11.789062 4.914062 -12.328125 6.78125 -12.328125 C 8.644531 -12.328125 10.070312 -11.789062 11.0625 -10.71875 C 12.050781 -9.644531 12.546875 -8.097656 12.546875 -6.078125 Z M 3.6875 -6.078125 C 3.6875 -4.722656 3.941406 -3.703125 4.453125 -3.015625 C 4.972656 -2.335938 5.742188 -2 6.765625 -2 C 8.816406 -2 9.84375 -3.359375 9.84375 -6.078125 C 9.84375 -8.816406 8.820312 -10.1875 6.78125 -10.1875 C 5.757812 -10.1875 4.988281 -9.84375 4.46875 -9.15625 C 3.945312 -8.46875 3.6875 -7.441406 3.6875 -6.078125 Z M 3.6875 -6.078125 "/></g></g></g><g fill="#6e33e4" fill-opacity="1"><g transform="translate(36.077808, 285.497823)"><g><path d="M 6.671875 0 L 3.75 -9.515625 L 3.671875 -9.515625 C 3.773438 -7.578125 3.828125 -6.285156 3.828125 -5.640625 L 3.828125 0 L 1.53125 0 L 1.53125 -12.140625 L 5.03125 -12.140625 L 7.90625 -2.859375 L 7.953125 -2.859375 L 11 -12.140625 L 14.5 -12.140625 L 14.5 0 L 12.109375 0 L 12.109375 -5.75 C 12.109375 -6.019531 12.109375 -6.332031 12.109375 -6.6875 C 12.117188 -7.039062 12.160156 -7.976562 12.234375 -9.5 L 12.15625 -9.5 L 9.015625 0 Z M 6.671875 0 "/></g></g></g><g fill="#6e33e4" fill-opacity="1"><g transform="translate(53.527234, 285.497823)"><g><path d="M 4.09375 -6.421875 L 4.953125 -6.421875 C 5.742188 -6.421875 6.332031 -6.578125 6.71875 -6.890625 C 7.113281 -7.203125 7.3125 -7.660156 7.3125 -8.265625 C 7.3125 -8.867188 7.144531 -9.3125 6.8125 -9.59375 C 6.488281 -9.882812 5.972656 -10.03125 5.265625 -10.03125 L 4.09375 -10.03125 Z M 9.90625 -8.34375 C 9.90625 -7.039062 9.5 -6.039062 8.6875 -5.34375 C 7.875 -4.65625 6.710938 -4.3125 5.203125 -4.3125 L 4.09375 -4.3125 L 4.09375 0 L 1.53125 0 L 1.53125 -12.140625 L 5.40625 -12.140625 C 6.875 -12.140625 7.988281 -11.820312 8.75 -11.1875 C 9.519531 -10.550781 9.90625 -9.601562 9.90625 -8.34375 Z M 9.90625 -8.34375 "/></g></g></g><g fill="#6e33e4" fill-opacity="1"><g transform="translate(65.625114, 285.497823)"><g><path d="M 8.953125 0 L 8.078125 -2.890625 L 3.65625 -2.890625 L 2.765625 0 L 0 0 L 4.28125 -12.1875 L 7.421875 -12.1875 L 11.734375 0 Z M 7.46875 -5.046875 C 6.65625 -7.660156 6.195312 -9.140625 6.09375 -9.484375 C 5.988281 -9.828125 5.914062 -10.097656 5.875 -10.296875 C 5.6875 -9.585938 5.160156 -7.835938 4.296875 -5.046875 Z M 7.46875 -5.046875 "/></g></g></g><g fill="#6e33e4" fill-opacity="1"><g transform="translate(78.776709, 285.497823)"><g><path d="M 8.6875 -3.375 C 8.6875 -2.28125 8.289062 -1.414062 7.5 -0.78125 C 6.71875 -0.144531 5.625 0.171875 4.21875 0.171875 C 2.925781 0.171875 1.78125 -0.0703125 0.78125 -0.5625 L 0.78125 -2.953125 C 1.601562 -2.585938 2.296875 -2.328125 2.859375 -2.171875 C 3.421875 -2.023438 3.941406 -1.953125 4.421875 -1.953125 C 4.984375 -1.953125 5.414062 -2.0625 5.71875 -2.28125 C 6.019531 -2.5 6.171875 -2.820312 6.171875 -3.25 C 6.171875 -3.488281 6.101562 -3.695312 5.96875 -3.875 C 5.832031 -4.0625 5.632812 -4.238281 5.375 -4.40625 C 5.125 -4.582031 4.601562 -4.859375 3.8125 -5.234375 C 3.070312 -5.585938 2.515625 -5.921875 2.140625 -6.234375 C 1.765625 -6.554688 1.46875 -6.929688 1.25 -7.359375 C 1.03125 -7.785156 0.921875 -8.285156 0.921875 -8.859375 C 0.921875 -9.929688 1.285156 -10.773438 2.015625 -11.390625 C 2.742188 -12.003906 3.75 -12.3125 5.03125 -12.3125 C 5.664062 -12.3125 6.265625 -12.234375 6.828125 -12.078125 C 7.398438 -11.929688 8.003906 -11.722656 8.640625 -11.453125 L 7.796875 -9.453125 C 7.148438 -9.722656 6.613281 -9.910156 6.1875 -10.015625 C 5.769531 -10.117188 5.359375 -10.171875 4.953125 -10.171875 C 4.460938 -10.171875 4.085938 -10.054688 3.828125 -9.828125 C 3.566406 -9.597656 3.4375 -9.300781 3.4375 -8.9375 C 3.4375 -8.707031 3.488281 -8.507812 3.59375 -8.34375 C 3.695312 -8.175781 3.863281 -8.015625 4.09375 -7.859375 C 4.320312 -7.703125 4.867188 -7.414062 5.734375 -7 C 6.859375 -6.457031 7.628906 -5.914062 8.046875 -5.375 C 8.472656 -4.832031 8.6875 -4.164062 8.6875 -3.375 Z M 8.6875 -3.375 "/></g></g></g><g fill="#6e33e4" fill-opacity="1"><g transform="translate(89.563669, 285.497823)"><g><path d="M 8.6875 -3.375 C 8.6875 -2.28125 8.289062 -1.414062 7.5 -0.78125 C 6.71875 -0.144531 5.625 0.171875 4.21875 0.171875 C 2.925781 0.171875 1.78125 -0.0703125 0.78125 -0.5625 L 0.78125 -2.953125 C 1.601562 -2.585938 2.296875 -2.328125 2.859375 -2.171875 C 3.421875 -2.023438 3.941406 -1.953125 4.421875 -1.953125 C 4.984375 -1.953125 5.414062 -2.0625 5.71875 -2.28125 C 6.019531 -2.5 6.171875 -2.820312 6.171875 -3.25 C 6.171875 -3.488281 6.101562 -3.695312 5.96875 -3.875 C 5.832031 -4.0625 5.632812 -4.238281 5.375 -4.40625 C 5.125 -4.582031 4.601562 -4.859375 3.8125 -5.234375 C 3.070312 -5.585938 2.515625 -5.921875 2.140625 -6.234375 C 1.765625 -6.554688 1.46875 -6.929688 1.25 -7.359375 C 1.03125 -7.785156 0.921875 -8.285156 0.921875 -8.859375 C 0.921875 -9.929688 1.285156 -10.773438 2.015625 -11.390625 C 2.742188 -12.003906 3.75 -12.3125 5.03125 -12.3125 C 5.664062 -12.3125 6.265625 -12.234375 6.828125 -12.078125 C 7.398438 -11.929688 8.003906 -11.722656 8.640625 -11.453125 L 7.796875 -9.453125 C 7.148438 -9.722656 6.613281 -9.910156 6.1875 -10.015625 C 5.769531 -10.117188 5.359375 -10.171875 4.953125 -10.171875 C 4.460938 -10.171875 4.085938 -10.054688 3.828125 -9.828125 C 3.566406 -9.597656 3.4375 -9.300781 3.4375 -8.9375 C 3.4375 -8.707031 3.488281 -8.507812 3.59375 -8.34375 C 3.695312 -8.175781 3.863281 -8.015625 4.09375 -7.859375 C 4.320312 -7.703125 4.867188 -7.414062 5.734375 -7 C 6.859375 -6.457031 7.628906 -5.914062 8.046875 -5.375 C 8.472656 -4.832031 8.6875 -4.164062 8.6875 -3.375 Z M 8.6875 -3.375 "/></g></g></g><g fill="#6e33e4" fill-opacity="1"><g transform="translate(100.350629, 285.497823)"><g><path d="M 1.53125 0 L 1.53125 -12.140625 L 4.09375 -12.140625 L 4.09375 0 Z M 1.53125 0 "/></g></g></g><g fill="#6e33e4" fill-opacity="1"><g transform="translate(107.40396, 285.497823)"><g><path d="M 12.546875 -6.078125 C 12.546875 -4.078125 12.046875 -2.535156 11.046875 -1.453125 C 10.046875 -0.367188 8.617188 0.171875 6.765625 0.171875 C 4.898438 0.171875 3.46875 -0.367188 2.46875 -1.453125 C 1.476562 -2.535156 0.984375 -4.082031 0.984375 -6.09375 C 0.984375 -8.113281 1.484375 -9.65625 2.484375 -10.71875 C 3.484375 -11.789062 4.914062 -12.328125 6.78125 -12.328125 C 8.644531 -12.328125 10.070312 -11.789062 11.0625 -10.71875 C 12.050781 -9.644531 12.546875 -8.097656 12.546875 -6.078125 Z M 3.6875 -6.078125 C 3.6875 -4.722656 3.941406 -3.703125 4.453125 -3.015625 C 4.972656 -2.335938 5.742188 -2 6.765625 -2 C 8.816406 -2 9.84375 -3.359375 9.84375 -6.078125 C 9.84375 -8.816406 8.820312 -10.1875 6.78125 -10.1875 C 5.757812 -10.1875 4.988281 -9.84375 4.46875 -9.15625 C 3.945312 -8.46875 3.6875 -7.441406 3.6875 -6.078125 Z M 3.6875 -6.078125 "/></g></g></g><g fill="#6e33e4" fill-opacity="1"><g transform="translate(122.355996, 285.497823)"><g><path d="M 12.296875 0 L 9.015625 0 L 3.75 -9.1875 L 3.671875 -9.1875 C 3.773438 -7.5625 3.828125 -6.40625 3.828125 -5.71875 L 3.828125 0 L 1.53125 0 L 1.53125 -12.140625 L 4.765625 -12.140625 L 10.046875 -3.046875 L 10.109375 -3.046875 C 10.023438 -4.617188 9.984375 -5.734375 9.984375 -6.390625 L 9.984375 -12.140625 L 12.296875 -12.140625 Z M 12.296875 0 "/></g></g></g><g fill="#6e33e4" fill-opacity="1"><g transform="translate(137.598427, 285.497823)"><g/></g></g><g fill="#6e33e4" fill-opacity="1"><g transform="translate(143.440395, 285.497823)"><g><path d="M 1.53125 0 L 1.53125 -12.140625 L 4.09375 -12.140625 L 4.09375 0 Z M 1.53125 0 "/></g></g></g><g fill="#6e33e4" fill-opacity="1"><g transform="translate(150.49372, 285.497823)"><g><path d="M 12.296875 0 L 9.015625 0 L 3.75 -9.1875 L 3.671875 -9.1875 C 3.773438 -7.5625 3.828125 -6.40625 3.828125 -5.71875 L 3.828125 0 L 1.53125 0 L 1.53125 -12.140625 L 4.765625 -12.140625 L 10.046875 -3.046875 L 10.109375 -3.046875 C 10.023438 -4.617188 9.984375 -5.734375 9.984375 -6.390625 L 9.984375 -12.140625 L 12.296875 -12.140625 Z M 12.296875 0 "/></g></g></g><g fill="#6e33e4" fill-opacity="1"><g transform="translate(165.736151, 285.497823)"><g/></g></g><g fill="#6e33e4" fill-opacity="1"><g transform="translate(171.578119, 285.497823)"><g><path d="M 8.515625 0 L 1.53125 0 L 1.53125 -12.140625 L 8.515625 -12.140625 L 8.515625 -10.03125 L 4.09375 -10.03125 L 4.09375 -7.359375 L 8.203125 -7.359375 L 8.203125 -5.25 L 4.09375 -5.25 L 4.09375 -2.125 L 8.515625 -2.125 Z M 8.515625 0 "/></g></g></g><g fill="#6e33e4" fill-opacity="1"><g transform="translate(182.522721, 285.497823)"><g><path d="M 8.453125 -12.140625 L 11.046875 -12.140625 L 6.921875 0 L 4.125 0 L 0 -12.140625 L 2.59375 -12.140625 L 4.875 -4.921875 C 5.007812 -4.492188 5.144531 -3.992188 5.28125 -3.421875 C 5.414062 -2.859375 5.5 -2.460938 5.53125 -2.234375 C 5.59375 -2.742188 5.800781 -3.640625 6.15625 -4.921875 Z M 8.453125 -12.140625 "/></g></g></g><g fill="#6e33e4" fill-opacity="1"><g transform="translate(194.993965, 285.497823)"><g><path d="M 8.515625 0 L 1.53125 0 L 1.53125 -12.140625 L 8.515625 -12.140625 L 8.515625 -10.03125 L 4.09375 -10.03125 L 4.09375 -7.359375 L 8.203125 -7.359375 L 8.203125 -5.25 L 4.09375 -5.25 L 4.09375 -2.125 L 8.515625 -2.125 Z M 8.515625 0 "/></g></g></g><g fill="#6e33e4" fill-opacity="1"><g transform="translate(205.938568, 285.497823)"><g><path d="M 4.09375 -6.75 L 4.9375 -6.75 C 5.75 -6.75 6.347656 -6.882812 6.734375 -7.15625 C 7.117188 -7.425781 7.3125 -7.851562 7.3125 -8.4375 C 7.3125 -9.007812 7.113281 -9.414062 6.71875 -9.65625 C 6.320312 -9.90625 5.707031 -10.03125 4.875 -10.03125 L 4.09375 -10.03125 Z M 4.09375 -4.65625 L 4.09375 0 L 1.53125 0 L 1.53125 -12.140625 L 5.0625 -12.140625 C 6.707031 -12.140625 7.925781 -11.835938 8.71875 -11.234375 C 9.507812 -10.628906 9.90625 -9.71875 9.90625 -8.5 C 9.90625 -7.78125 9.707031 -7.144531 9.3125 -6.59375 C 8.925781 -6.039062 8.375 -5.601562 7.65625 -5.28125 C 9.476562 -2.5625 10.664062 -0.800781 11.21875 0 L 8.375 0 L 5.46875 -4.65625 Z M 4.09375 -4.65625 "/></g></g></g><g fill="#6e33e4" fill-opacity="1"><g transform="translate(218.584059, 285.497823)"><g><path d="M 5.296875 -7.140625 L 7.84375 -12.140625 L 10.609375 -12.140625 L 6.578125 -4.71875 L 6.578125 0 L 4.03125 0 L 4.03125 -4.640625 L 0 -12.140625 L 2.796875 -12.140625 Z M 5.296875 -7.140625 "/></g></g></g><g fill="#6e33e4" fill-opacity="1"><g transform="translate(230.615576, 285.497823)"><g/></g></g><g fill="#6e33e4" fill-opacity="1"><g transform="translate(236.457555, 285.497823)"><g><path d="M 1.53125 0 L 1.53125 -12.140625 L 4.09375 -12.140625 L 4.09375 0 Z M 1.53125 0 "/></g></g></g><g fill="#6e33e4" fill-opacity="1"><g transform="translate(243.510892, 285.497823)"><g><path d="M 12.296875 0 L 9.015625 0 L 3.75 -9.1875 L 3.671875 -9.1875 C 3.773438 -7.5625 3.828125 -6.40625 3.828125 -5.71875 L 3.828125 0 L 1.53125 0 L 1.53125 -12.140625 L 4.765625 -12.140625 L 10.046875 -3.046875 L 10.109375 -3.046875 C 10.023438 -4.617188 9.984375 -5.734375 9.984375 -6.390625 L 9.984375 -12.140625 L 12.296875 -12.140625 Z M 12.296875 0 "/></g></g></g><g fill="#6e33e4" fill-opacity="1"><g transform="translate(258.753322, 285.497823)"><g><path d="M 6.203125 0 L 3.640625 0 L 3.640625 -10 L 0.34375 -10 L 0.34375 -12.140625 L 9.5 -12.140625 L 9.5 -10 L 6.203125 -10 Z M 6.203125 0 "/></g></g></g><g fill="#6e33e4" fill-opacity="1"><g transform="translate(270.021518, 285.497823)"><g><path d="M 8.515625 0 L 1.53125 0 L 1.53125 -12.140625 L 8.515625 -12.140625 L 8.515625 -10.03125 L 4.09375 -10.03125 L 4.09375 -7.359375 L 8.203125 -7.359375 L 8.203125 -5.25 L 4.09375 -5.25 L 4.09375 -2.125 L 8.515625 -2.125 Z M 8.515625 0 "/></g></g></g><g fill="#6e33e4" fill-opacity="1"><g transform="translate(280.96612, 285.497823)"><g><path d="M 4.09375 -6.75 L 4.9375 -6.75 C 5.75 -6.75 6.347656 -6.882812 6.734375 -7.15625 C 7.117188 -7.425781 7.3125 -7.851562 7.3125 -8.4375 C 7.3125 -9.007812 7.113281 -9.414062 6.71875 -9.65625 C 6.320312 -9.90625 5.707031 -10.03125 4.875 -10.03125 L 4.09375 -10.03125 Z M 4.09375 -4.65625 L 4.09375 0 L 1.53125 0 L 1.53125 -12.140625 L 5.0625 -12.140625 C 6.707031 -12.140625 7.925781 -11.835938 8.71875 -11.234375 C 9.507812 -10.628906 9.90625 -9.71875 9.90625 -8.5 C 9.90625 -7.78125 9.707031 -7.144531 9.3125 -6.59375 C 8.925781 -6.039062 8.375 -5.601562 7.65625 -5.28125 C 9.476562 -2.5625 10.664062 -0.800781 11.21875 0 L 8.375 0 L 5.46875 -4.65625 Z M 4.09375 -4.65625 "/></g></g></g><g fill="#6e33e4" fill-opacity="1"><g transform="translate(293.611612, 285.497823)"><g><path d="M 8.953125 0 L 8.078125 -2.890625 L 3.65625 -2.890625 L 2.765625 0 L 0 0 L 4.28125 -12.1875 L 7.421875 -12.1875 L 11.734375 0 Z M 7.46875 -5.046875 C 6.65625 -7.660156 6.195312 -9.140625 6.09375 -9.484375 C 5.988281 -9.828125 5.914062 -10.097656 5.875 -10.296875 C 5.6875 -9.585938 5.160156 -7.835938 4.296875 -5.046875 Z M 7.46875 -5.046875 "/></g></g></g><g fill="#6e33e4" fill-opacity="1"><g transform="translate(306.763207, 285.497823)"><g><path d="M 6.6875 -10.171875 C 5.71875 -10.171875 4.96875 -9.804688 4.4375 -9.078125 C 3.90625 -8.347656 3.640625 -7.332031 3.640625 -6.03125 C 3.640625 -3.320312 4.65625 -1.96875 6.6875 -1.96875 C 7.53125 -1.96875 8.5625 -2.179688 9.78125 -2.609375 L 9.78125 -0.453125 C 8.78125 -0.0351562 7.664062 0.171875 6.4375 0.171875 C 4.675781 0.171875 3.328125 -0.363281 2.390625 -1.4375 C 1.453125 -2.507812 0.984375 -4.046875 0.984375 -6.046875 C 0.984375 -7.304688 1.210938 -8.410156 1.671875 -9.359375 C 2.128906 -10.316406 2.789062 -11.046875 3.65625 -11.546875 C 4.519531 -12.054688 5.53125 -12.3125 6.6875 -12.3125 C 7.863281 -12.3125 9.046875 -12.023438 10.234375 -11.453125 L 9.40625 -9.359375 C 8.945312 -9.578125 8.488281 -9.765625 8.03125 -9.921875 C 7.570312 -10.085938 7.125 -10.171875 6.6875 -10.171875 Z M 6.6875 -10.171875 "/></g></g></g><g fill="#6e33e4" fill-opacity="1"><g transform="translate(319.01873, 285.497823)"><g><path d="M 6.203125 0 L 3.640625 0 L 3.640625 -10 L 0.34375 -10 L 0.34375 -12.140625 L 9.5 -12.140625 L 9.5 -10 L 6.203125 -10 Z M 6.203125 0 "/></g></g></g><g fill="#6e33e4" fill-opacity="1"><g transform="translate(330.286925, 285.497823)"><g><path d="M 1.53125 0 L 1.53125 -12.140625 L 4.09375 -12.140625 L 4.09375 0 Z M 1.53125 0 "/></g></g></g><g fill="#6e33e4" fill-opacity="1"><g transform="translate(337.340262, 285.497823)"><g><path d="M 12.546875 -6.078125 C 12.546875 -4.078125 12.046875 -2.535156 11.046875 -1.453125 C 10.046875 -0.367188 8.617188 0.171875 6.765625 0.171875 C 4.898438 0.171875 3.46875 -0.367188 2.46875 -1.453125 C 1.476562 -2.535156 0.984375 -4.082031 0.984375 -6.09375 C 0.984375 -8.113281 1.484375 -9.65625 2.484375 -10.71875 C 3.484375 -11.789062 4.914062 -12.328125 6.78125 -12.328125 C 8.644531 -12.328125 10.070312 -11.789062 11.0625 -10.71875 C 12.050781 -9.644531 12.546875 -8.097656 12.546875 -6.078125 Z M 3.6875 -6.078125 C 3.6875 -4.722656 3.941406 -3.703125 4.453125 -3.015625 C 4.972656 -2.335938 5.742188 -2 6.765625 -2 C 8.816406 -2 9.84375 -3.359375 9.84375 -6.078125 C 9.84375 -8.816406 8.820312 -10.1875 6.78125 -10.1875 C 5.757812 -10.1875 4.988281 -9.84375 4.46875 -9.15625 C 3.945312 -8.46875 3.6875 -7.441406 3.6875 -6.078125 Z M 3.6875 -6.078125 "/></g></g></g><g fill="#6e33e4" fill-opacity="1"><g transform="translate(352.29231, 285.497823)"><g><path d="M 12.296875 0 L 9.015625 0 L 3.75 -9.1875 L 3.671875 -9.1875 C 3.773438 -7.5625 3.828125 -6.40625 3.828125 -5.71875 L 3.828125 0 L 1.53125 0 L 1.53125 -12.140625 L 4.765625 -12.140625 L 10.046875 -3.046875 L 10.109375 -3.046875 C 10.023438 -4.617188 9.984375 -5.734375 9.984375 -6.390625 L 9.984375 -12.140625 L 12.296875 -12.140625 Z M 12.296875 0 "/></g></g></g></svg>